<svg id="svg1" version="1.1" xmlns="http://www.w3.org/2000/svg" xmlns:xlink="http://www.w3.org/1999/xlink"  viewBox="0, 0, 400,400"><g id="svgg"><path id="path0" d="M154.815 48.375 C 154.796 48.394,144.147 48.457,131.150 48.515 C 104.894 48.632,103.234 48.664,99.512 49.130 C 99.189 49.171,98.223 49.263,97.363 49.334 C 96.504 49.406,95.619 49.533,95.397 49.616 C 95.176 49.699,94.495 49.830,93.886 49.906 C 93.277 49.982,92.812 50.100,92.855 50.169 C 92.897 50.237,92.742 50.310,92.511 50.330 C 91.312 50.437,90.896 50.509,90.674 50.650 C 90.540 50.735,90.430 50.752,90.430 50.688 C 90.430 50.624,90.246 50.671,90.021 50.791 C 89.796 50.911,89.335 51.044,88.996 51.086 C 88.164 51.188,85.128 52.148,84.777 52.419 C 84.557 52.589,84.530 52.579,84.654 52.373 C 84.782 52.161,84.734 52.152,84.412 52.324 C 84.039 52.523,83.036 52.961,82.813 53.021 C 81.568 53.357,80.314 53.803,79.953 54.040 C 79.700 54.206,79.492 54.274,79.492 54.191 C 79.492 54.109,79.338 54.168,79.150 54.324 C 78.962 54.479,78.589 54.708,78.320 54.832 C 77.108 55.391,75.987 55.859,75.862 55.859 C 75.788 55.859,75.601 56.013,75.447 56.201 C 75.263 56.425,75.210 56.442,75.293 56.250 C 75.377 56.055,75.327 56.070,75.142 56.296 C 74.989 56.482,74.806 56.577,74.737 56.507 C 74.667 56.437,74.609 56.488,74.609 56.620 C 74.609 56.751,74.527 56.808,74.427 56.746 C 74.327 56.685,73.954 56.810,73.597 57.026 C 73.241 57.242,72.817 57.480,72.656 57.555 C 72.495 57.629,72.247 57.828,72.105 57.996 C 71.962 58.163,71.904 58.187,71.975 58.048 C 72.212 57.584,69.416 59.431,67.310 61.130 C 67.108 61.293,66.537 61.853,66.040 62.376 C 65.105 63.359,63.870 64.585,63.434 64.963 C 62.540 65.737,60.975 67.553,61.091 67.681 C 61.168 67.766,61.136 67.783,61.021 67.717 C 60.810 67.597,60.156 68.216,60.156 68.536 C 60.156 68.631,60.046 68.752,59.912 68.806 C 59.778 68.859,59.448 69.330,59.180 69.852 C 58.911 70.374,58.582 70.871,58.447 70.957 C 58.313 71.043,58.203 71.211,58.203 71.330 C 58.203 71.450,57.803 72.231,57.313 73.066 C 56.823 73.901,56.409 74.766,56.393 74.987 C 56.376 75.209,56.299 75.391,56.222 75.391 C 56.062 75.391,55.759 76.186,55.826 76.431 C 55.849 76.519,55.779 76.536,55.669 76.468 C 55.482 76.352,55.379 76.625,55.456 77.033 C 55.474 77.130,55.418 77.262,55.330 77.326 C 54.996 77.568,53.713 80.495,52.805 83.085 C 52.538 83.848,52.267 84.604,52.204 84.766 C 52.052 85.155,51.980 85.390,51.906 85.742 C 51.872 85.903,51.776 86.145,51.692 86.279 C 51.608 86.414,51.589 86.604,51.650 86.702 C 51.711 86.800,51.668 86.911,51.555 86.949 C 51.443 86.987,51.323 87.236,51.290 87.503 C 51.257 87.770,51.069 88.516,50.874 89.160 C 50.678 89.805,50.493 90.464,50.462 90.625 C 50.277 91.606,49.791 93.746,49.634 94.272 C 49.533 94.613,49.491 94.934,49.542 94.985 C 49.593 95.036,49.549 95.416,49.443 95.830 C 49.338 96.244,49.196 97.146,49.129 97.836 C 49.061 98.526,48.964 99.157,48.913 99.239 C 48.863 99.320,48.913 99.443,49.023 99.512 C 49.134 99.580,49.169 99.727,49.100 99.839 C 49.031 99.950,48.950 100.406,48.920 100.851 C 48.890 101.296,48.849 101.660,48.830 101.660 C 48.457 101.660,48.241 213.086,48.500 271.582 C 48.605 295.324,48.680 298.974,49.118 301.465 C 49.175 301.787,49.227 302.314,49.234 302.637 C 49.240 302.959,49.378 303.882,49.539 304.688 C 49.700 305.493,49.921 306.592,50.029 307.129 C 50.136 307.666,50.249 308.237,50.278 308.398 C 50.308 308.560,50.394 308.833,50.469 309.006 C 50.545 309.179,50.635 309.530,50.669 309.787 C 50.767 310.529,51.242 312.109,51.366 312.109 C 51.428 312.109,51.500 312.383,51.526 312.717 C 51.551 313.051,51.665 313.498,51.779 313.711 C 51.892 313.923,52.027 314.329,52.079 314.614 C 52.131 314.898,52.387 315.666,52.649 316.321 C 52.911 316.976,53.125 317.702,53.125 317.935 C 53.125 318.169,53.228 318.359,53.353 318.359 C 53.478 318.359,53.523 318.417,53.453 318.487 C 53.383 318.557,53.494 318.887,53.699 319.219 C 53.905 319.552,54.073 319.893,54.073 319.978 C 54.073 320.141,54.269 320.575,55.837 323.885 C 56.387 325.044,56.836 326.026,56.836 326.067 C 56.836 326.108,57.275 326.902,57.812 327.832 C 58.350 328.762,58.789 329.587,58.789 329.665 C 58.789 329.743,59.084 330.129,59.445 330.523 C 59.806 330.917,60.067 331.274,60.025 331.316 C 59.983 331.358,60.170 331.602,60.440 331.858 C 60.710 332.115,60.932 332.383,60.934 332.454 C 60.940 332.698,63.497 335.059,63.697 335.005 C 63.807 334.975,63.844 335.036,63.780 335.139 C 63.629 335.383,64.617 336.371,64.861 336.220 C 64.964 336.156,65.025 336.193,64.995 336.303 C 64.935 336.524,67.317 339.062,67.585 339.063 C 67.678 339.063,67.824 339.173,67.910 339.308 C 68.069 339.557,70.221 341.211,70.386 341.211 C 70.436 341.211,71.238 341.650,72.168 342.188 C 73.098 342.725,73.892 343.164,73.933 343.164 C 73.974 343.164,74.956 343.613,76.115 344.163 C 79.499 345.766,79.866 345.930,79.925 345.866 C 79.955 345.833,80.297 346.002,80.683 346.240 C 81.069 346.479,81.443 346.617,81.513 346.547 C 81.583 346.477,81.641 346.522,81.641 346.647 C 81.641 346.772,81.800 346.875,81.994 346.875 C 82.188 346.875,83.067 347.138,83.947 347.459 C 84.827 347.780,85.547 347.997,85.547 347.942 C 85.547 347.887,85.802 347.974,86.114 348.135 C 86.427 348.296,86.954 348.449,87.286 348.475 C 87.619 348.500,87.891 348.568,87.891 348.627 C 87.891 348.772,89.403 349.237,90.213 349.340 C 90.577 349.387,90.972 349.486,91.092 349.561 C 91.211 349.636,91.528 349.724,91.797 349.757 C 92.065 349.790,92.540 349.902,92.851 350.006 C 93.163 350.110,93.690 350.196,94.023 350.197 C 94.356 350.199,95.042 350.325,95.547 350.478 C 96.053 350.632,96.800 350.760,97.208 350.764 C 97.615 350.767,98.213 350.819,98.535 350.878 C 100.948 351.318,104.626 351.395,128.418 351.500 C 187.171 351.760,298.340 351.544,298.340 351.170 C 298.340 351.151,298.704 351.110,299.149 351.080 C 299.594 351.050,300.050 350.969,300.161 350.900 C 300.273 350.831,300.420 350.866,300.488 350.977 C 300.557 351.087,300.680 351.137,300.761 351.087 C 300.843 351.036,301.474 350.939,302.164 350.871 C 302.854 350.804,303.756 350.662,304.170 350.557 C 304.584 350.451,304.964 350.407,305.015 350.458 C 305.066 350.509,305.387 350.467,305.728 350.366 C 306.254 350.209,308.394 349.723,309.375 349.538 C 309.536 349.507,310.195 349.322,310.840 349.126 C 311.484 348.931,312.230 348.743,312.497 348.710 C 312.764 348.677,313.013 348.557,313.051 348.445 C 313.089 348.332,313.200 348.289,313.298 348.350 C 313.396 348.411,313.586 348.392,313.721 348.308 C 313.855 348.224,314.075 348.131,314.209 348.101 C 314.600 348.014,314.920 347.919,315.234 347.796 C 315.396 347.733,316.143 347.462,316.895 347.194 C 319.713 346.192,322.432 345.004,322.674 344.670 C 322.738 344.582,322.870 344.526,322.967 344.544 C 323.375 344.621,323.648 344.518,323.532 344.331 C 323.464 344.221,323.481 344.151,323.569 344.174 C 323.814 344.241,324.609 343.938,324.609 343.778 C 324.609 343.701,324.791 343.624,325.013 343.607 C 325.234 343.591,326.099 343.177,326.934 342.687 C 327.769 342.197,328.550 341.797,328.670 341.797 C 328.789 341.797,328.957 341.687,329.043 341.553 C 329.129 341.418,329.626 341.089,330.148 340.820 C 330.670 340.552,331.141 340.222,331.194 340.088 C 331.248 339.954,331.369 339.844,331.464 339.844 C 331.784 339.844,332.403 339.190,332.283 338.979 C 332.217 338.864,332.234 338.832,332.319 338.909 C 332.447 339.025,334.263 337.460,335.037 336.566 C 335.415 336.130,336.641 334.895,337.624 333.960 C 338.147 333.463,338.707 332.892,338.870 332.690 C 340.569 330.584,342.416 327.788,341.952 328.025 C 341.813 328.096,341.837 328.038,342.004 327.895 C 342.172 327.753,342.371 327.505,342.445 327.344 C 342.520 327.183,342.758 326.759,342.974 326.403 C 343.190 326.046,343.315 325.673,343.254 325.573 C 343.192 325.473,343.239 325.391,343.359 325.391 C 343.479 325.391,343.523 325.303,343.457 325.195 C 343.391 325.088,343.435 325.000,343.555 325.000 C 343.675 325.000,343.718 324.911,343.651 324.803 C 343.585 324.695,343.667 324.554,343.835 324.489 C 344.003 324.425,344.141 324.289,344.141 324.187 C 344.141 324.021,344.552 323.016,345.168 321.680 C 345.292 321.411,345.521 321.038,345.676 320.850 C 345.832 320.662,345.900 320.508,345.827 320.508 C 345.755 320.508,345.863 320.178,346.068 319.775 C 346.273 319.373,346.533 318.735,346.646 318.359 C 346.856 317.659,347.380 316.149,347.595 315.625 C 347.661 315.464,347.742 315.200,347.775 315.039 C 347.808 314.878,348.058 314.065,348.330 313.232 C 348.602 312.399,348.862 311.419,348.907 311.054 C 348.952 310.689,349.100 310.183,349.235 309.931 C 349.370 309.679,349.465 309.451,349.447 309.424 C 349.429 309.397,349.424 309.353,349.436 309.326 C 349.465 309.262,349.622 308.026,349.670 307.487 C 349.690 307.254,349.746 307.102,349.793 307.150 C 349.926 307.283,350.517 304.173,350.668 302.539 C 350.743 301.733,350.841 300.723,350.886 300.293 C 350.931 299.863,351.017 299.028,351.078 298.438 C 351.807 291.297,351.825 106.406,351.097 101.747 C 351.054 101.473,350.960 100.287,350.888 99.111 C 350.816 97.935,350.617 96.317,350.447 95.516 C 350.277 94.715,350.118 93.880,350.094 93.661 C 350.070 93.441,350.033 93.262,350.011 93.262 C 349.990 93.262,349.942 93.042,349.905 92.773 C 349.761 91.755,348.772 87.761,348.501 87.109 C 348.434 86.948,348.341 86.641,348.295 86.426 C 348.181 85.893,348.127 85.702,347.979 85.303 C 347.821 84.880,347.671 84.401,347.656 84.278 C 347.650 84.227,347.475 83.788,347.267 83.303 C 347.059 82.819,346.932 82.422,346.984 82.422 C 347.036 82.422,346.935 82.202,346.759 81.934 C 346.583 81.665,346.504 81.445,346.582 81.445 C 346.660 81.445,346.599 81.248,346.446 81.006 C 346.294 80.764,346.012 80.149,345.822 79.639 C 345.631 79.128,345.380 78.711,345.264 78.711 C 345.147 78.711,345.107 78.656,345.174 78.589 C 345.241 78.522,345.122 78.127,344.910 77.710 C 344.697 77.294,344.583 76.953,344.655 76.953 C 344.728 76.953,344.624 76.773,344.425 76.553 C 344.226 76.333,344.046 76.039,344.026 75.900 C 343.974 75.546,342.206 72.036,341.900 71.680 C 341.762 71.519,341.496 71.079,341.309 70.703 C 340.944 69.969,339.663 68.220,338.867 67.370 C 338.599 67.084,338.238 66.684,338.065 66.481 C 337.892 66.279,337.585 65.974,337.381 65.804 C 337.178 65.634,336.836 65.275,336.621 65.007 C 336.406 64.739,336.077 64.463,335.889 64.395 C 335.701 64.326,335.547 64.135,335.547 63.971 C 335.547 63.806,335.477 63.672,335.391 63.672 C 335.305 63.672,334.932 63.358,334.561 62.974 C 334.190 62.590,333.721 62.128,333.519 61.948 C 333.316 61.768,332.916 61.401,332.630 61.133 C 331.849 60.401,330.071 59.089,329.297 58.673 C 328.921 58.471,328.481 58.202,328.320 58.077 C 327.924 57.768,324.417 56.021,324.100 55.974 C 323.961 55.954,323.667 55.774,323.447 55.575 C 323.227 55.376,323.047 55.272,323.047 55.345 C 323.047 55.417,322.706 55.303,322.290 55.090 C 321.873 54.878,321.478 54.759,321.411 54.826 C 321.344 54.893,321.289 54.853,321.289 54.736 C 321.289 54.620,320.872 54.369,320.361 54.178 C 319.851 53.988,319.236 53.706,318.994 53.554 C 318.752 53.401,318.555 53.340,318.555 53.418 C 318.555 53.496,318.335 53.417,318.066 53.241 C 317.798 53.065,317.578 52.964,317.578 53.016 C 317.578 53.068,317.181 52.941,316.697 52.733 C 316.212 52.525,315.750 52.342,315.671 52.325 C 315.444 52.276,315.068 52.159,314.697 52.021 C 314.509 51.952,314.180 51.857,313.965 51.811 C 313.409 51.692,313.223 51.638,312.891 51.500 C 312.240 51.229,308.246 50.239,307.227 50.095 C 306.958 50.058,306.738 50.010,306.738 49.989 C 306.738 49.967,306.559 49.930,306.339 49.906 C 306.120 49.882,305.285 49.723,304.484 49.553 C 303.683 49.383,302.061 49.184,300.879 49.112 C 299.697 49.040,298.555 48.942,298.340 48.894 C 297.441 48.696,287.587 48.559,268.945 48.487 C 248.175 48.406,154.876 48.314,154.815 48.375 M292.890 69.424 C 293.632 69.480,294.546 69.575,294.922 69.634 C 295.298 69.694,295.957 69.773,296.387 69.810 C 296.816 69.847,297.871 69.937,298.730 70.011 C 299.590 70.084,300.577 70.232,300.924 70.340 C 301.271 70.448,301.644 70.480,301.754 70.413 C 301.864 70.345,301.953 70.383,301.953 70.496 C 301.953 70.610,302.019 70.688,302.100 70.670 C 302.567 70.563,305.663 71.277,308.594 72.167 C 309.185 72.347,309.800 72.518,309.961 72.549 C 310.122 72.579,310.581 72.747,310.980 72.923 C 311.379 73.099,311.775 73.243,311.859 73.243 C 311.943 73.243,312.441 73.461,312.965 73.727 C 313.489 73.993,314.008 74.155,314.118 74.087 C 314.228 74.019,314.263 74.052,314.196 74.160 C 314.130 74.268,314.314 74.464,314.606 74.595 C 315.321 74.916,317.249 76.214,317.432 76.497 C 317.513 76.622,317.996 76.983,318.506 77.299 C 319.699 78.037,321.963 80.301,322.701 81.494 C 323.017 82.004,323.378 82.487,323.503 82.568 C 323.786 82.751,325.084 84.679,325.405 85.394 C 325.536 85.686,325.732 85.870,325.840 85.804 C 325.948 85.737,325.981 85.772,325.913 85.882 C 325.845 85.992,326.007 86.511,326.273 87.035 C 326.539 87.559,326.757 88.057,326.757 88.141 C 326.757 88.225,326.901 88.621,327.077 89.020 C 327.253 89.419,327.421 89.878,327.451 90.039 C 327.482 90.200,327.653 90.815,327.833 91.406 C 328.723 94.337,329.437 97.433,329.330 97.900 C 329.312 97.981,329.390 98.047,329.504 98.047 C 329.617 98.047,329.655 98.136,329.587 98.246 C 329.520 98.356,329.552 98.729,329.660 99.076 C 329.768 99.423,329.916 100.410,329.989 101.270 C 330.063 102.129,330.153 103.184,330.190 103.613 C 330.227 104.043,330.313 104.746,330.381 105.176 C 330.450 105.605,330.517 106.287,330.532 106.689 C 330.546 107.092,330.604 107.422,330.660 107.422 C 330.839 107.422,330.681 293.225,330.501 293.744 C 330.407 294.016,330.392 294.414,330.468 294.629 C 330.544 294.844,330.526 295.308,330.429 295.660 C 330.331 296.013,330.223 296.716,330.188 297.223 C 330.085 298.723,329.707 300.942,329.285 302.524 C 329.068 303.338,328.863 304.180,328.830 304.395 C 328.713 305.149,328.469 306.154,328.355 306.344 C 328.293 306.450,328.228 306.669,328.212 306.833 C 328.122 307.738,327.282 310.309,326.721 311.397 C 326.592 311.648,326.599 311.720,326.743 311.630 C 326.859 311.559,326.953 311.588,326.953 311.696 C 326.953 311.803,326.865 311.945,326.758 312.012 C 326.651 312.078,326.205 312.896,325.767 313.830 C 325.070 315.319,323.432 317.751,323.003 317.936 C 322.920 317.972,322.852 318.111,322.852 318.246 C 322.852 318.611,320.973 320.882,320.150 321.512 C 319.756 321.815,319.038 322.344,318.555 322.688 C 318.071 323.032,317.632 323.364,317.578 323.425 C 316.734 324.380,312.404 326.687,310.400 327.248 C 309.729 327.437,309.180 327.667,309.180 327.760 C 309.180 327.853,309.019 327.930,308.822 327.930 C 308.625 327.930,308.401 327.992,308.324 328.069 C 308.247 328.146,307.991 328.229,307.754 328.254 C 307.518 328.279,306.533 328.508,305.566 328.764 C 302.550 329.561,301.106 329.889,300.195 329.984 C 299.712 330.034,298.877 330.122,298.340 330.180 C 297.803 330.238,296.704 330.325,295.898 330.374 C 295.093 330.424,294.214 330.510,293.945 330.566 C 293.677 330.621,251.577 330.660,200.391 330.652 C 149.204 330.644,107.170 330.641,106.982 330.646 C 105.652 330.683,104.297 330.595,104.297 330.471 C 104.297 330.416,103.923 330.369,103.467 330.365 C 101.915 330.355,98.785 329.885,97.823 329.519 C 97.538 329.410,97.259 329.369,97.201 329.427 C 97.143 329.484,96.981 329.459,96.839 329.371 C 96.698 329.282,96.494 329.193,96.387 329.172 C 96.279 329.152,95.576 328.987,94.824 328.807 C 94.072 328.627,93.325 328.450,93.164 328.415 C 93.003 328.379,92.496 328.215,92.038 328.050 C 91.580 327.885,91.161 327.752,91.106 327.754 C 91.003 327.759,88.996 327.039,88.477 326.811 C 88.315 326.740,88.096 326.675,87.988 326.666 C 87.696 326.641,84.129 324.798,83.773 324.487 C 83.603 324.339,83.414 324.269,83.352 324.331 C 83.290 324.393,83.180 324.260,83.109 324.035 C 83.038 323.811,82.898 323.678,82.798 323.739 C 82.699 323.801,82.617 323.771,82.617 323.672 C 82.617 323.573,82.112 323.158,81.494 322.749 C 80.058 321.797,78.203 319.942,77.251 318.506 C 76.842 317.888,76.427 317.383,76.328 317.383 C 76.229 317.383,76.199 317.301,76.261 317.202 C 76.322 317.102,76.189 316.962,75.965 316.891 C 75.740 316.820,75.607 316.710,75.669 316.648 C 75.731 316.586,75.661 316.397,75.513 316.227 C 75.202 315.871,73.359 312.304,73.334 312.012 C 73.325 311.904,73.260 311.685,73.189 311.523 C 72.961 311.004,72.241 308.997,72.246 308.894 C 72.248 308.839,72.115 308.420,71.950 307.962 C 71.785 307.504,71.621 306.997,71.585 306.836 C 71.550 306.675,71.373 305.928,71.193 305.176 C 71.013 304.424,70.848 303.721,70.828 303.613 C 70.807 303.506,70.718 303.302,70.629 303.161 C 70.541 303.019,70.516 302.857,70.573 302.799 C 70.631 302.741,70.590 302.462,70.481 302.177 C 70.115 301.215,69.645 298.085,69.635 296.533 C 69.631 296.077,69.584 295.703,69.529 295.703 C 69.409 295.703,69.309 294.226,69.354 293.115 C 69.359 292.981,69.357 250.947,69.348 199.707 C 69.339 148.467,69.378 106.323,69.434 106.055 C 69.490 105.786,69.576 104.907,69.625 104.102 C 69.674 103.296,69.759 102.241,69.813 101.758 C 69.867 101.274,69.959 100.396,70.018 99.805 C 70.077 99.214,70.247 98.291,70.394 97.754 C 70.542 97.217,70.730 96.426,70.812 95.996 C 70.894 95.566,70.986 95.127,71.017 95.020 C 71.048 94.912,71.126 94.570,71.190 94.260 C 71.254 93.949,71.421 93.422,71.561 93.088 C 71.700 92.753,71.792 92.327,71.764 92.139 C 71.737 91.952,71.795 91.749,71.892 91.688 C 71.990 91.628,72.070 91.408,72.070 91.199 C 72.070 90.991,72.147 90.820,72.240 90.820 C 72.333 90.820,72.563 90.271,72.752 89.600 C 73.316 87.586,75.664 83.187,76.582 82.422 C 76.647 82.368,76.934 81.973,77.220 81.543 C 78.490 79.638,81.058 77.148,81.754 77.148 C 81.889 77.148,82.028 77.080,82.064 76.997 C 82.249 76.568,84.681 74.930,86.170 74.233 C 87.104 73.795,87.922 73.349,87.988 73.242 C 88.055 73.135,88.197 73.047,88.304 73.047 C 88.412 73.047,88.441 73.141,88.370 73.257 C 88.280 73.401,88.352 73.408,88.603 73.279 C 89.741 72.692,93.127 71.633,93.375 71.787 C 93.459 71.839,93.578 71.800,93.640 71.700 C 93.733 71.550,94.783 71.273,95.605 71.182 C 95.713 71.170,96.196 71.043,96.680 70.899 C 97.163 70.755,97.685 70.613,97.840 70.584 C 97.995 70.555,98.312 70.484,98.545 70.425 C 99.248 70.249,101.795 69.880,102.777 69.812 C 103.284 69.777,103.987 69.669,104.340 69.571 C 104.692 69.474,105.152 69.455,105.362 69.528 C 105.572 69.602,106.066 69.567,106.461 69.450 C 107.197 69.233,290.028 69.207,292.890 69.424 M299.120 82.810 C 299.168 82.888,298.968 82.954,298.676 82.958 C 297.454 82.973,296.739 83.086,296.094 83.366 C 295.718 83.529,295.289 83.685,295.140 83.712 C 294.992 83.740,294.777 83.856,294.662 83.971 C 294.547 84.086,294.334 84.180,294.189 84.180 C 293.432 84.180,290.750 86.426,289.609 88.015 C 289.272 88.483,288.934 88.867,288.857 88.867 C 288.728 88.867,288.530 89.341,288.369 90.036 C 288.333 90.195,288.210 90.356,288.097 90.394 C 287.983 90.431,287.891 90.675,287.891 90.934 C 287.891 91.194,287.798 91.406,287.684 91.406 C 287.570 91.406,287.522 91.478,287.576 91.567 C 287.631 91.655,287.556 91.956,287.411 92.237 C 287.266 92.517,287.189 92.788,287.242 92.841 C 287.294 92.893,287.245 93.105,287.134 93.313 C 286.991 93.580,286.998 93.756,287.158 93.915 C 287.288 94.045,287.300 94.141,287.188 94.141 C 286.968 94.141,286.980 97.648,287.202 98.438 C 287.278 98.706,287.363 99.058,287.392 99.219 C 287.471 99.659,287.855 100.616,288.196 101.221 C 288.362 101.516,288.446 101.758,288.382 101.758 C 288.318 101.758,288.423 101.928,288.615 102.135 C 288.808 102.343,289.140 102.840,289.354 103.241 C 289.836 104.142,292.344 106.641,292.766 106.641 C 292.851 106.641,293.030 106.771,293.162 106.931 C 293.295 107.091,293.468 107.182,293.547 107.134 C 293.626 107.085,293.862 107.204,294.072 107.399 C 294.281 107.595,294.778 107.815,295.175 107.890 C 295.573 107.964,295.898 108.095,295.898 108.179 C 295.898 108.264,296.008 108.340,296.143 108.348 C 296.819 108.387,297.671 108.543,297.774 108.646 C 297.838 108.710,298.013 108.715,298.164 108.657 C 298.314 108.599,298.437 108.627,298.437 108.719 C 298.437 109.318,304.478 108.385,305.186 107.677 C 305.342 107.521,305.469 107.446,305.469 107.509 C 305.469 107.728,307.328 106.675,308.089 106.025 C 310.850 103.664,312.540 100.752,313.000 97.559 C 313.176 96.339,313.222 94.154,313.070 94.248 C 313.008 94.286,312.971 94.136,312.987 93.913 C 313.003 93.691,312.910 93.102,312.778 92.604 C 312.647 92.106,312.509 91.567,312.471 91.406 C 312.433 91.245,312.339 91.066,312.261 91.007 C 312.183 90.949,312.093 90.726,312.060 90.512 C 312.027 90.298,311.808 89.853,311.572 89.522 C 311.337 89.191,311.208 88.851,311.285 88.765 C 311.362 88.679,311.318 88.671,311.187 88.746 C 311.035 88.834,310.904 88.705,310.826 88.392 C 310.758 88.121,310.367 87.597,309.958 87.227 C 309.548 86.858,309.255 86.513,309.307 86.461 C 309.420 86.348,307.242 84.766,306.974 84.766 C 306.869 84.766,306.620 84.576,306.419 84.345 C 306.219 84.114,306.055 83.979,306.055 84.045 C 306.055 84.112,305.649 83.992,305.153 83.779 C 303.593 83.111,298.833 82.346,299.120 82.810 M200.526 125.515 C 200.458 125.584,199.630 125.653,198.687 125.669 C 197.744 125.684,196.849 125.774,196.698 125.867 C 196.499 125.990,196.467 125.967,196.582 125.781 C 196.693 125.601,196.664 125.572,196.484 125.684 C 196.344 125.771,195.462 125.860,194.525 125.883 C 193.588 125.905,192.721 125.986,192.597 126.062 C 192.474 126.139,191.980 126.238,191.499 126.284 C 189.793 126.446,188.959 126.548,188.477 126.654 C 188.208 126.712,187.725 126.803,187.402 126.854 C 187.080 126.906,186.377 127.049,185.840 127.172 C 185.303 127.296,184.666 127.407,184.424 127.419 C 184.182 127.431,183.984 127.513,183.984 127.599 C 183.984 127.686,183.913 127.713,183.825 127.659 C 183.670 127.563,183.100 127.700,180.078 128.555 C 179.272 128.783,178.507 128.970,178.378 128.970 C 178.248 128.971,178.187 129.045,178.243 129.134 C 178.298 129.224,178.218 129.297,178.064 129.297 C 177.691 129.297,175.453 130.012,174.656 130.386 C 174.306 130.550,173.932 130.631,173.826 130.565 C 173.720 130.499,173.633 130.529,173.633 130.630 C 173.633 130.789,173.373 130.911,172.801 131.021 C 172.720 131.037,172.225 131.266,171.702 131.532 C 171.179 131.797,170.696 131.959,170.629 131.892 C 170.562 131.825,170.508 131.879,170.508 132.010 C 170.508 132.142,170.422 132.197,170.318 132.132 C 170.214 132.068,169.906 132.161,169.634 132.339 C 169.363 132.517,169.141 132.595,169.141 132.512 C 169.141 132.430,168.978 132.550,168.779 132.779 C 168.580 133.008,168.360 133.139,168.291 133.069 C 168.221 133.000,168.164 133.050,168.164 133.182 C 168.164 133.314,168.088 133.375,167.995 133.317 C 167.902 133.260,167.152 133.556,166.328 133.975 C 165.503 134.394,164.787 134.742,164.737 134.748 C 164.686 134.754,164.447 134.883,164.207 135.034 C 162.279 136.246,160.492 137.305,160.373 137.305 C 160.294 137.305,160.055 137.458,159.841 137.646 C 159.478 137.966,159.270 138.099,158.157 138.721 C 157.916 138.855,157.604 139.119,157.462 139.307 C 157.320 139.495,157.078 139.648,156.923 139.648 C 156.767 139.648,156.641 139.751,156.641 139.876 C 156.641 140.002,156.583 140.046,156.512 139.976 C 156.442 139.905,156.090 140.150,155.731 140.519 C 155.372 140.889,155.078 141.141,155.078 141.080 C 155.078 141.018,154.617 141.361,154.053 141.841 C 153.489 142.320,152.838 142.813,152.606 142.936 C 152.374 143.058,151.561 143.769,150.799 144.514 C 150.037 145.259,149.414 145.829,149.414 145.779 C 149.414 145.730,149.132 145.978,148.787 146.331 C 148.442 146.684,148.112 146.951,148.055 146.924 C 147.997 146.897,147.945 146.941,147.940 147.021 C 147.935 147.102,146.946 148.169,145.743 149.392 C 144.539 150.616,143.555 151.654,143.555 151.700 C 143.555 151.746,143.248 152.108,142.873 152.503 C 142.498 152.899,142.190 153.333,142.189 153.467 C 142.188 153.601,142.114 153.711,142.024 153.711 C 141.934 153.711,141.315 154.414,140.649 155.273 C 139.983 156.133,139.489 156.836,139.551 156.836 C 139.613 156.836,139.475 157.034,139.245 157.275 C 138.797 157.745,137.109 160.223,137.109 160.410 C 137.109 160.472,136.846 160.811,136.523 161.164 C 136.201 161.517,135.938 161.962,135.938 162.153 C 135.938 162.344,135.872 162.501,135.791 162.501 C 135.710 162.502,135.475 162.788,135.267 163.136 C 134.369 164.643,133.763 165.747,133.660 166.064 C 133.598 166.252,133.478 166.406,133.393 166.406 C 133.308 166.406,133.260 166.558,133.287 166.744 C 133.315 166.930,133.241 167.190,133.123 167.323 C 132.577 167.942,132.414 168.164,132.509 168.164 C 132.565 168.164,132.349 168.680,132.028 169.311 C 131.708 169.942,131.445 170.561,131.445 170.685 C 131.445 170.810,131.303 171.129,131.130 171.394 C 130.956 171.658,130.871 171.875,130.939 171.875 C 131.008 171.875,130.937 172.073,130.782 172.314 C 130.627 172.556,130.471 172.930,130.435 173.145 C 130.400 173.359,130.224 173.699,130.044 173.898 C 129.864 174.098,129.760 174.377,129.814 174.517 C 129.868 174.658,129.762 175.003,129.578 175.283 C 129.394 175.564,129.299 175.849,129.366 175.916 C 129.434 175.983,129.397 176.149,129.284 176.285 C 129.044 176.574,128.340 178.398,128.199 179.095 C 128.146 179.361,128.012 179.686,127.901 179.819 C 127.791 179.952,127.754 180.147,127.818 180.251 C 127.883 180.356,127.845 180.498,127.734 180.566 C 127.623 180.635,127.582 180.770,127.642 180.867 C 127.701 180.964,127.618 181.298,127.457 181.610 C 127.296 181.922,127.207 182.220,127.259 182.272 C 127.312 182.325,127.265 182.604,127.155 182.893 C 127.045 183.182,126.913 183.754,126.862 184.164 C 126.810 184.574,126.671 185.162,126.551 185.472 C 126.278 186.183,125.725 189.216,125.746 189.889 C 125.752 190.075,125.678 190.275,125.582 190.334 C 125.486 190.394,125.451 190.556,125.505 190.695 C 125.558 190.834,125.511 191.188,125.399 191.481 C 125.269 191.822,125.266 191.971,125.391 191.895 C 125.516 191.817,125.514 191.961,125.384 192.302 C 124.972 193.386,124.461 203.906,124.821 203.906 C 124.884 203.906,124.935 204.034,124.935 204.191 C 124.935 204.347,124.880 204.441,124.812 204.399 C 124.573 204.251,124.790 206.648,125.106 207.643 C 125.185 207.891,125.161 208.010,125.048 207.940 C 124.929 207.866,124.914 208.124,125.007 208.634 C 125.089 209.081,125.114 209.555,125.063 209.688 C 125.012 209.821,125.073 210.124,125.200 210.360 C 125.343 210.628,125.352 210.741,125.223 210.661 C 125.080 210.573,125.072 210.703,125.195 211.077 C 125.294 211.376,125.415 212.061,125.464 212.598 C 125.513 213.135,125.567 213.574,125.585 213.574 C 125.620 213.574,125.691 213.953,125.898 215.234 C 125.976 215.718,126.071 216.245,126.109 216.406 C 126.147 216.567,126.195 216.853,126.216 217.041 C 126.238 217.229,126.302 217.383,126.360 217.383 C 126.418 217.383,126.478 217.669,126.495 218.018 C 126.536 218.864,127.375 222.269,127.522 222.179 C 127.585 222.140,127.650 222.297,127.667 222.528 C 127.757 223.783,128.483 226.215,128.723 226.067 C 128.821 226.006,128.856 226.076,128.799 226.223 C 128.743 226.370,128.831 226.748,128.996 227.064 C 129.160 227.379,129.295 227.738,129.296 227.861 C 129.296 227.985,129.595 228.820,129.960 229.717 C 130.805 231.796,130.920 232.095,130.940 232.283 C 130.949 232.367,131.089 232.519,131.250 232.621 C 131.411 232.723,131.467 232.808,131.374 232.810 C 131.281 232.811,131.347 233.029,131.521 233.294 C 131.694 233.559,131.836 233.874,131.836 233.994 C 131.836 234.224,133.040 236.697,133.757 237.939 C 134.455 239.149,134.910 239.959,135.674 241.351 C 136.074 242.080,136.692 243.082,137.048 243.578 C 137.404 244.074,137.695 244.572,137.695 244.685 C 137.695 244.797,137.959 245.138,138.281 245.442 C 138.604 245.746,138.867 246.105,138.867 246.240 C 138.867 246.374,138.933 246.485,139.014 246.485 C 139.094 246.485,139.460 246.924,139.825 247.461 C 140.191 247.998,140.555 248.438,140.633 248.438 C 140.711 248.438,140.821 248.613,140.877 248.828 C 140.933 249.043,141.124 249.219,141.302 249.219 C 141.479 249.219,141.573 249.302,141.510 249.405 C 141.401 249.580,141.792 250.089,143.018 251.364 C 143.313 251.672,143.555 251.981,143.555 252.051 C 143.555 252.121,143.796 252.430,144.092 252.737 C 145.172 253.861,145.529 254.279,145.508 254.397 C 145.497 254.463,145.690 254.680,145.937 254.878 C 146.933 255.676,148.337 257.091,148.291 257.251 C 148.264 257.345,148.353 257.422,148.488 257.422 C 148.770 257.422,149.805 258.331,149.805 258.578 C 149.805 258.668,150.067 258.850,150.388 258.983 C 150.709 259.116,150.933 259.287,150.886 259.363 C 150.752 259.580,151.454 260.095,151.749 259.996 C 151.939 259.933,151.975 260.012,151.876 260.270 C 151.800 260.470,151.797 260.573,151.870 260.500 C 151.989 260.380,153.138 261.208,154.197 262.175 C 154.873 262.792,155.664 263.315,155.670 263.148 C 155.673 263.060,155.763 263.138,155.870 263.321 C 155.976 263.503,156.831 264.152,157.768 264.762 C 158.706 265.371,159.517 265.925,159.570 265.992 C 159.624 266.059,159.866 266.223,160.107 266.357 C 160.349 266.492,160.745 266.711,160.986 266.846 C 161.228 266.980,161.470 267.134,161.523 267.188 C 161.643 267.307,162.416 267.754,163.114 268.106 C 163.398 268.250,163.739 268.497,163.871 268.656 C 164.002 268.815,164.192 268.945,164.291 268.945 C 164.391 268.945,164.831 269.119,165.270 269.331 C 165.709 269.543,166.158 269.661,166.268 269.594 C 166.381 269.524,166.407 269.567,166.327 269.696 C 166.203 269.898,166.436 270.010,166.846 269.945 C 166.926 269.932,166.992 270.015,166.992 270.129 C 166.992 270.242,167.081 270.281,167.189 270.214 C 167.297 270.147,167.438 270.230,167.503 270.398 C 167.567 270.566,167.780 270.703,167.976 270.703 C 168.171 270.703,168.459 270.831,168.615 270.987 C 168.771 271.143,168.953 271.216,169.020 271.150 C 169.086 271.083,169.141 271.131,169.141 271.257 C 169.141 271.382,169.311 271.484,169.520 271.484 C 169.728 271.484,169.953 271.572,170.020 271.680 C 170.086 271.787,170.289 271.877,170.471 271.879 C 170.652 271.882,171.328 272.143,171.973 272.461 C 172.617 272.778,173.293 273.040,173.475 273.042 C 173.656 273.045,173.863 273.141,173.934 273.256 C 174.005 273.370,174.186 273.417,174.336 273.359 C 174.486 273.302,174.609 273.333,174.609 273.428 C 174.609 273.585,175.776 274.083,176.270 274.137 C 176.377 274.149,176.597 274.208,176.758 274.269 C 178.341 274.865,183.086 276.124,183.124 275.959 C 183.135 275.915,183.274 275.988,183.435 276.121 C 183.682 276.326,184.806 276.572,185.693 276.616 C 185.828 276.622,185.938 276.706,185.938 276.802 C 185.938 276.898,186.008 276.933,186.094 276.879 C 186.181 276.826,186.642 276.871,187.120 276.980 C 187.598 277.089,188.340 277.218,188.770 277.266 C 189.795 277.380,190.527 277.492,190.527 277.535 C 190.527 277.674,191.233 277.662,191.320 277.521 C 191.386 277.414,191.571 277.418,191.782 277.531 C 192.133 277.719,192.951 277.819,196.094 278.061 C 199.108 278.292,207.616 278.181,207.617 277.911 C 207.617 277.847,207.903 277.813,208.252 277.836 C 208.601 277.859,209.414 277.800,210.059 277.704 C 210.703 277.608,211.538 277.490,211.914 277.444 C 213.080 277.298,213.941 277.162,214.551 277.025 C 214.873 276.953,215.313 276.870,215.527 276.839 C 215.742 276.809,216.357 276.683,216.895 276.561 C 217.432 276.438,218.076 276.315,218.327 276.288 C 218.578 276.261,218.853 276.126,218.938 275.989 C 219.052 275.805,219.128 275.798,219.231 275.965 C 219.321 276.111,219.451 276.125,219.597 276.005 C 219.818 275.824,220.892 275.501,221.875 275.319 C 222.144 275.269,222.681 275.093,223.068 274.928 C 223.456 274.762,224.012 274.584,224.304 274.531 C 225.057 274.394,226.231 274.003,226.483 273.804 C 226.600 273.712,226.754 273.694,226.825 273.765 C 226.895 273.835,226.953 273.791,226.953 273.665 C 226.953 273.540,227.133 273.438,227.353 273.438 C 227.574 273.438,228.013 273.303,228.330 273.140 C 228.647 272.976,228.906 272.890,228.906 272.949 C 228.906 273.008,229.159 272.926,229.467 272.767 C 229.776 272.607,230.098 272.539,230.182 272.615 C 230.267 272.691,230.273 272.644,230.196 272.510 C 230.110 272.361,230.174 272.256,230.360 272.241 C 230.527 272.228,230.730 272.194,230.811 272.166 C 230.891 272.138,231.155 272.051,231.396 271.972 C 231.638 271.894,231.836 271.752,231.836 271.657 C 231.836 271.562,231.902 271.505,231.982 271.529 C 232.135 271.576,233.476 271.030,233.984 270.715 C 234.482 270.406,235.627 269.895,235.990 269.819 C 236.180 269.780,236.471 269.611,236.638 269.444 C 236.805 269.277,237.029 269.141,237.135 269.141 C 237.241 269.141,237.265 269.039,237.188 268.915 C 237.112 268.791,237.129 268.738,237.226 268.798 C 237.323 268.857,237.710 268.741,238.086 268.540 C 238.462 268.339,238.923 268.118,239.111 268.049 C 239.299 267.980,239.453 267.831,239.453 267.718 C 239.453 267.605,239.509 267.569,239.577 267.637 C 239.645 267.705,239.921 267.588,240.189 267.376 C 240.458 267.165,240.787 266.992,240.920 266.992 C 241.054 266.992,241.274 266.858,241.410 266.694 C 241.546 266.531,241.696 266.436,241.744 266.483 C 241.823 266.563,242.433 266.102,243.092 265.465 C 243.239 265.323,243.359 265.259,243.359 265.323 C 243.359 265.471,244.303 264.887,244.866 264.390 C 245.103 264.180,245.499 263.903,245.745 263.775 C 245.990 263.647,246.169 263.440,246.143 263.314 C 246.116 263.189,246.160 263.100,246.240 263.117 C 246.511 263.174,247.165 262.823,247.510 262.435 C 247.698 262.223,247.852 262.103,247.852 262.167 C 247.852 262.232,248.181 261.982,248.584 261.612 C 248.987 261.242,249.388 260.939,249.474 260.938 C 249.561 260.938,249.577 260.847,249.509 260.737 C 249.441 260.627,249.457 260.550,249.546 260.565 C 249.937 260.633,250.195 260.528,250.195 260.302 C 250.195 260.167,250.459 259.940,250.781 259.797 C 251.104 259.654,251.367 259.413,251.367 259.261 C 251.367 259.109,251.461 258.984,251.576 258.984 C 251.889 258.984,252.346 258.468,252.188 258.293 C 252.113 258.209,252.143 258.193,252.255 258.257 C 252.514 258.403,252.736 258.249,253.278 257.542 C 253.516 257.232,253.711 257.031,253.711 257.094 C 253.711 257.158,254.260 256.607,254.932 255.871 C 255.603 255.134,256.240 254.517,256.348 254.500 C 256.506 254.475,257.781 253.008,260.647 249.555 C 260.756 249.424,261.327 248.701,261.916 247.949 C 262.505 247.197,263.053 246.553,263.135 246.517 C 263.217 246.480,263.234 246.371,263.174 246.273 C 263.114 246.176,263.333 245.810,263.662 245.460 C 263.990 245.110,264.308 244.670,264.369 244.482 C 264.430 244.294,264.561 244.141,264.662 244.141 C 264.762 244.141,264.844 244.049,264.844 243.938 C 264.844 243.826,265.151 243.278,265.527 242.720 C 265.903 242.161,266.211 241.593,266.211 241.458 C 266.211 241.322,266.297 241.211,266.403 241.211 C 266.508 241.211,266.649 240.991,266.717 240.723 C 266.784 240.454,266.907 240.234,266.990 240.234 C 267.072 240.234,267.249 239.971,267.383 239.648 C 267.516 239.326,267.717 239.063,267.830 239.063 C 267.942 239.063,267.975 239.004,267.903 238.932 C 267.831 238.860,267.898 238.662,268.052 238.492 C 268.206 238.323,268.337 238.117,268.344 238.036 C 268.351 237.956,268.858 236.901,269.471 235.693 C 270.084 234.485,270.591 233.452,270.598 233.398 C 270.606 233.345,270.664 233.213,270.728 233.105 C 270.792 232.998,270.904 232.661,270.977 232.356 C 271.050 232.052,271.282 231.618,271.492 231.392 C 271.703 231.166,271.875 230.778,271.875 230.530 C 271.875 230.281,271.948 230.078,272.038 230.078 C 272.127 230.078,272.204 229.968,272.208 229.834 C 272.221 229.423,272.355 229.010,272.514 228.892 C 272.597 228.830,272.699 228.611,272.741 228.404 C 272.783 228.197,273.049 227.324,273.332 226.465 C 273.616 225.605,273.865 224.669,273.887 224.384 C 273.908 224.099,273.992 223.907,274.072 223.956 C 274.153 224.006,274.219 223.846,274.219 223.602 C 274.219 223.358,274.342 222.803,274.493 222.370 C 274.644 221.937,274.879 221.073,275.015 220.450 C 275.151 219.827,275.336 219.272,275.427 219.216 C 275.518 219.160,275.543 219.034,275.483 218.936 C 275.422 218.839,275.475 218.383,275.600 217.924 C 275.724 217.465,275.827 216.892,275.828 216.650 C 275.829 216.409,275.897 216.211,275.979 216.211 C 276.061 216.211,276.120 216.101,276.109 215.967 C 276.061 215.379,276.429 213.071,276.586 212.974 C 276.684 212.913,276.675 212.710,276.565 212.504 C 276.442 212.275,276.440 212.117,276.558 212.076 C 276.660 212.041,276.777 211.345,276.818 210.530 C 276.858 209.715,276.937 208.968,276.995 208.870 C 277.052 208.772,277.076 208.362,277.046 207.959 C 277.017 207.556,277.050 207.227,277.120 207.227 C 277.305 207.227,277.343 198.659,277.161 197.829 C 277.075 197.437,277.086 196.980,277.185 196.803 C 277.283 196.628,277.291 196.484,277.202 196.484 C 277.114 196.484,277.030 196.067,277.015 195.557 C 276.937 192.803,276.882 192.383,276.601 192.383 C 276.388 192.383,276.372 192.319,276.537 192.121 C 276.657 191.977,276.722 191.823,276.683 191.779 C 276.643 191.735,276.558 191.216,276.493 190.625 C 276.429 190.034,276.246 188.939,276.087 188.191 C 275.928 187.444,275.838 186.793,275.886 186.744 C 275.934 186.696,275.876 186.540,275.758 186.397 C 275.639 186.255,275.592 186.008,275.653 185.849 C 275.714 185.690,275.674 185.504,275.564 185.436 C 275.454 185.368,275.407 185.200,275.460 185.063 C 275.512 184.926,275.429 184.571,275.275 184.275 C 275.121 183.978,275.010 183.637,275.028 183.518 C 275.047 183.399,275.010 183.169,274.948 183.008 C 274.885 182.847,274.643 182.012,274.410 181.152 C 274.177 180.293,273.898 179.370,273.790 179.102 C 273.681 178.833,273.554 178.403,273.506 178.147 C 273.459 177.890,273.275 177.363,273.099 176.975 C 272.922 176.587,272.771 176.166,272.763 176.039 C 272.755 175.912,272.690 175.750,272.618 175.678 C 272.547 175.606,272.535 175.425,272.592 175.276 C 272.650 175.126,272.574 174.956,272.425 174.899 C 272.275 174.841,272.141 174.638,272.126 174.447 C 272.112 174.256,271.736 173.269,271.291 172.255 C 270.846 171.240,270.462 170.309,270.438 170.186 C 270.413 170.062,270.298 169.843,270.181 169.697 C 270.065 169.552,269.909 169.235,269.834 168.991 C 269.759 168.748,269.618 168.599,269.519 168.660 C 269.421 168.721,269.388 168.645,269.447 168.492 C 269.506 168.339,269.411 168.071,269.236 167.896 C 269.061 167.721,268.970 167.578,269.034 167.578 C 269.099 167.578,268.833 166.963,268.444 166.211 C 268.054 165.459,267.657 164.844,267.559 164.844 C 267.462 164.844,267.405 164.773,267.432 164.687 C 267.494 164.487,266.763 163.035,266.504 162.845 C 266.393 162.763,266.388 162.700,266.492 162.698 C 266.594 162.697,266.523 162.583,266.335 162.446 C 266.147 162.309,265.972 162.051,265.946 161.873 C 265.901 161.564,265.228 160.581,264.683 160.028 C 264.541 159.884,264.483 159.766,264.553 159.766 C 264.624 159.766,264.428 159.436,264.119 159.033 C 263.524 158.258,263.206 157.806,262.368 156.543 C 262.082 156.113,261.601 155.498,261.298 155.176 C 260.557 154.387,259.181 152.587,259.174 152.398 C 259.171 152.315,258.872 152.026,258.510 151.758 C 258.147 151.489,257.881 151.220,257.919 151.159 C 257.991 151.041,257.394 150.366,256.620 149.690 C 256.363 149.466,255.969 149.070,255.745 148.811 C 255.520 148.552,255.099 148.140,254.809 147.895 C 254.517 147.648,254.341 147.351,254.417 147.230 C 254.493 147.106,254.466 147.064,254.354 147.133 C 254.245 147.200,253.802 146.884,253.370 146.430 C 252.338 145.347,251.817 144.928,251.677 145.068 C 251.614 145.131,251.563 145.082,251.563 144.959 C 251.563 144.836,251.128 144.392,250.596 143.972 C 250.065 143.552,249.684 143.154,249.750 143.089 C 249.816 143.023,249.768 142.969,249.643 142.969 C 249.519 142.969,249.219 142.796,248.976 142.585 C 248.734 142.374,248.447 142.183,248.340 142.159 C 248.232 142.135,247.981 141.908,247.780 141.653 C 247.580 141.399,247.375 141.232,247.325 141.282 C 247.229 141.377,246.858 141.100,245.869 140.196 C 245.552 139.906,245.121 139.614,244.912 139.548 C 244.703 139.481,244.531 139.345,244.531 139.245 C 244.531 139.144,244.404 139.063,244.248 139.063 C 244.092 139.063,243.894 138.952,243.809 138.817 C 243.723 138.682,243.308 138.315,242.886 138.001 C 242.465 137.686,242.185 137.533,242.263 137.660 C 242.342 137.787,242.322 137.891,242.220 137.891 C 242.118 137.891,241.981 137.753,241.917 137.585 C 241.852 137.417,241.720 137.329,241.623 137.389 C 241.526 137.449,241.402 137.379,241.346 137.235 C 241.291 137.090,240.864 136.783,240.398 136.553 C 239.932 136.322,239.628 136.133,239.723 136.133 C 239.818 136.133,239.296 135.826,238.564 135.451 C 237.831 135.076,237.162 134.658,237.076 134.523 C 236.990 134.388,236.919 134.350,236.917 134.438 C 236.915 134.527,236.432 134.323,235.842 133.986 C 235.253 133.648,234.681 133.427,234.573 133.495 C 234.464 133.562,234.375 133.542,234.375 133.451 C 234.375 133.360,233.892 133.073,233.301 132.813 C 232.710 132.552,232.227 132.285,232.227 132.218 C 232.227 132.151,232.095 132.082,231.934 132.064 C 231.772 132.046,231.509 132.017,231.348 131.999 C 231.187 131.981,231.055 131.893,231.055 131.803 C 231.055 131.714,230.896 131.641,230.701 131.641 C 230.507 131.641,230.181 131.519,229.977 131.369 C 229.773 131.220,229.493 131.142,229.354 131.195 C 229.215 131.248,229.102 131.194,229.102 131.076 C 229.102 130.957,228.937 130.859,228.735 130.859 C 228.533 130.859,228.255 130.724,228.118 130.558 C 227.980 130.391,227.749 130.301,227.605 130.356 C 227.462 130.411,227.344 130.383,227.344 130.292 C 227.344 130.202,227.000 130.073,226.579 130.006 C 226.158 129.938,225.783 129.792,225.746 129.679 C 225.709 129.567,225.456 129.452,225.184 129.423 C 224.913 129.394,224.584 129.304,224.455 129.224 C 224.316 129.139,224.218 129.184,224.216 129.334 C 224.213 129.538,224.181 129.540,224.056 129.342 C 223.969 129.206,223.597 129.003,223.228 128.891 C 222.073 128.541,219.651 127.903,219.141 127.814 C 218.464 127.697,216.309 127.189,216.309 127.146 C 216.309 127.127,216.001 127.088,215.625 127.059 C 215.249 127.030,214.897 126.981,214.844 126.950 C 214.790 126.919,214.658 126.873,214.551 126.848 C 214.443 126.823,214.312 126.786,214.258 126.765 C 214.010 126.670,213.307 126.575,212.549 126.534 C 212.092 126.510,211.719 126.439,211.719 126.377 C 211.719 126.316,211.227 126.266,210.626 126.267 C 210.025 126.269,209.501 126.218,209.463 126.156 C 209.424 126.094,208.839 126.033,208.163 126.022 C 207.487 126.010,206.912 125.985,206.885 125.964 C 206.858 125.944,206.770 125.915,206.689 125.900 C 206.609 125.885,206.433 125.803,206.299 125.718 C 206.157 125.628,206.055 125.654,206.055 125.781 C 206.055 125.901,205.960 125.941,205.845 125.870 C 205.730 125.799,205.005 125.707,204.234 125.667 C 203.463 125.626,202.571 125.553,202.251 125.504 C 201.932 125.455,201.566 125.502,201.438 125.608 C 201.285 125.735,201.164 125.731,201.080 125.595 C 200.937 125.364,200.711 125.331,200.526 125.515 M198.438 143.367 C 198.491 143.388,198.623 143.387,198.730 143.365 C 199.296 143.246,206.746 143.467,207.520 143.625 C 207.734 143.669,208.414 143.763,209.030 143.834 C 209.645 143.905,210.788 144.096,211.569 144.258 C 212.349 144.420,213.314 144.584,213.712 144.623 C 214.110 144.661,214.526 144.749,214.637 144.817 C 214.856 144.953,216.637 145.436,217.484 145.589 C 217.773 145.642,218.220 145.823,218.477 145.991 C 218.735 146.160,218.945 146.241,218.945 146.172 C 218.945 146.103,219.077 146.155,219.238 146.289 C 219.399 146.423,219.531 146.467,219.531 146.387 C 219.531 146.307,219.663 146.351,219.824 146.484 C 220.060 146.680,220.118 146.676,220.120 146.459 C 220.122 146.286,220.174 146.265,220.267 146.400 C 220.387 146.575,221.857 147.248,222.166 147.270 C 222.383 147.285,223.020 147.544,224.219 148.103 C 224.917 148.428,225.640 148.687,225.826 148.676 C 226.012 148.666,226.143 148.751,226.119 148.865 C 226.094 148.979,226.338 149.162,226.660 149.272 C 226.982 149.383,227.311 149.569,227.390 149.687 C 227.469 149.806,227.534 149.831,227.536 149.744 C 227.539 149.604,227.996 149.831,230.653 151.291 C 231.022 151.494,231.500 151.814,231.715 152.002 C 231.929 152.190,232.167 152.344,232.244 152.344 C 232.429 152.344,234.299 153.607,234.684 153.992 C 234.852 154.160,235.107 154.297,235.252 154.297 C 235.396 154.297,235.544 154.366,235.579 154.451 C 235.615 154.536,235.996 154.866,236.426 155.183 C 236.855 155.500,237.277 155.870,237.363 156.005 C 237.449 156.140,237.601 156.250,237.701 156.250 C 237.800 156.250,238.367 156.720,238.960 157.295 C 239.554 157.869,240.039 158.303,240.039 158.257 C 240.039 158.212,240.161 158.291,240.309 158.433 C 240.458 158.575,241.161 159.245,241.872 159.922 C 242.583 160.598,243.164 161.200,243.164 161.259 C 243.164 161.318,243.428 161.613,243.750 161.914 C 244.072 162.215,244.337 162.404,244.337 162.334 C 244.338 162.264,244.492 162.433,244.679 162.709 C 245.113 163.350,245.431 163.723,246.338 164.659 C 246.741 165.074,247.070 165.471,247.070 165.540 C 247.070 165.713,248.240 167.228,248.606 167.529 C 248.769 167.664,248.834 167.773,248.750 167.773 C 248.667 167.773,248.826 168.044,249.104 168.374 C 249.382 168.705,249.609 169.061,249.609 169.166 C 249.609 169.271,249.873 169.638,250.196 169.981 C 250.518 170.325,250.741 170.715,250.690 170.850 C 250.640 170.984,250.683 171.094,250.787 171.094 C 250.891 171.094,250.977 171.226,250.977 171.387 C 250.977 171.548,251.066 171.680,251.176 171.680 C 251.286 171.680,251.479 171.921,251.604 172.217 C 251.730 172.512,251.962 172.908,252.119 173.096 C 252.276 173.284,252.340 173.438,252.262 173.438 C 252.184 173.438,252.259 173.576,252.427 173.744 C 252.596 173.913,252.734 174.210,252.734 174.404 C 252.734 174.598,252.865 174.865,253.025 174.998 C 253.185 175.131,253.268 175.318,253.209 175.413 C 253.150 175.508,253.195 175.586,253.309 175.586 C 253.423 175.586,253.498 175.652,253.476 175.732 C 253.423 175.929,254.262 177.542,254.661 178.012 C 254.837 178.219,254.871 178.323,254.736 178.245 C 254.397 178.046,254.429 178.191,254.902 178.993 C 255.128 179.375,255.237 179.689,255.146 179.690 C 255.055 179.692,255.106 179.773,255.260 179.870 C 255.413 179.967,255.561 180.164,255.588 180.307 C 255.641 180.589,256.018 181.701,256.272 182.324 C 256.570 183.055,257.251 185.057,257.302 185.352 C 257.330 185.513,257.409 185.820,257.478 186.035 C 257.547 186.250,257.653 186.721,257.715 187.083 C 257.776 187.444,257.947 188.030,258.096 188.385 C 258.244 188.740,258.327 189.069,258.281 189.115 C 258.234 189.162,258.321 189.806,258.474 190.547 C 258.817 192.211,259.003 193.403,259.086 194.473 C 259.121 194.925,259.236 195.448,259.341 195.635 C 259.451 195.832,259.462 196.157,259.368 196.405 C 259.278 196.641,259.251 196.881,259.308 196.938 C 259.364 196.995,259.455 197.465,259.508 197.983 C 259.562 198.502,259.639 198.959,259.679 199.000 C 259.719 199.041,259.667 199.234,259.563 199.428 C 259.459 199.622,259.440 199.822,259.521 199.872 C 259.602 199.922,259.651 200.652,259.631 201.495 C 259.572 203.929,259.399 207.289,259.311 207.715 C 259.266 207.930,259.328 208.232,259.449 208.387 C 259.616 208.602,259.610 208.634,259.424 208.522 C 259.290 208.441,259.175 208.446,259.169 208.533 C 259.097 209.576,258.990 210.575,258.888 211.133 C 258.820 211.509,258.738 212.090,258.706 212.425 C 258.675 212.760,258.601 213.111,258.543 213.206 C 258.401 213.436,257.976 215.568,257.922 216.323 C 257.898 216.653,257.804 217.044,257.712 217.192 C 257.575 217.414,256.171 221.309,255.989 221.973 C 255.741 222.877,255.374 223.783,255.151 224.039 C 255.003 224.209,254.936 224.402,255.002 224.469 C 255.069 224.535,254.893 225.000,254.612 225.503 C 254.331 226.005,254.102 226.552,254.102 226.718 C 254.102 226.884,253.963 227.173,253.794 227.360 C 253.625 227.547,253.467 227.827,253.445 227.983 C 253.422 228.138,253.253 228.416,253.069 228.600 C 252.885 228.784,252.734 229.005,252.734 229.091 C 252.734 229.320,251.994 230.864,251.559 231.543 C 251.353 231.865,251.039 232.393,250.862 232.715 C 250.685 233.037,250.359 233.499,250.138 233.740 C 249.917 233.982,249.795 234.180,249.866 234.180 C 249.938 234.180,249.869 234.333,249.713 234.521 C 248.878 235.531,248.242 236.399,248.242 236.530 C 248.242 236.670,247.744 237.296,246.729 238.432 C 246.487 238.703,246.289 239.058,246.289 239.221 C 246.289 239.385,246.237 239.466,246.174 239.403 C 246.111 239.340,245.825 239.555,245.539 239.882 C 245.253 240.208,244.756 240.779,244.434 241.151 C 244.111 241.523,243.701 241.974,243.523 242.153 C 243.344 242.333,242.932 242.815,242.608 243.223 C 242.284 243.632,241.947 243.972,241.859 243.979 C 241.555 244.003,241.019 244.469,241.147 244.598 C 241.218 244.669,241.130 244.727,240.951 244.727 C 240.771 244.727,240.625 244.873,240.625 245.052 C 240.625 245.231,240.570 245.323,240.503 245.255 C 240.436 245.188,240.152 245.393,239.873 245.711 C 239.594 246.029,239.239 246.289,239.084 246.289 C 238.929 246.289,238.860 246.347,238.931 246.418 C 239.002 246.489,238.731 246.769,238.329 247.040 C 237.927 247.311,237.483 247.692,237.342 247.887 C 237.202 248.082,236.958 248.242,236.799 248.242 C 236.641 248.242,236.462 248.371,236.402 248.528 C 236.341 248.685,236.110 248.871,235.887 248.942 C 235.664 249.012,235.273 249.279,235.017 249.535 C 234.762 249.791,234.422 250.000,234.262 250.000 C 234.103 250.000,233.922 250.131,233.860 250.292 C 233.799 250.452,233.669 250.535,233.573 250.476 C 233.477 250.416,233.398 250.519,233.398 250.705 C 233.398 250.890,233.340 250.983,233.268 250.911 C 233.196 250.839,232.967 250.934,232.759 251.123 C 232.551 251.311,232.324 251.465,232.255 251.465 C 232.186 251.465,232.158 251.553,232.194 251.660 C 232.230 251.768,232.200 251.797,232.129 251.725 C 232.057 251.653,231.500 251.895,230.892 252.262 C 230.283 252.628,229.675 252.929,229.541 252.929 C 229.407 252.929,229.297 252.996,229.297 253.076 C 229.297 253.157,228.682 253.518,227.930 253.879 C 227.178 254.240,226.563 254.613,226.563 254.709 C 226.563 254.805,226.427 254.883,226.262 254.883 C 226.096 254.883,225.624 255.055,225.212 255.265 C 224.800 255.475,224.408 255.592,224.341 255.525 C 224.274 255.458,224.219 255.511,224.219 255.643 C 224.219 255.775,224.138 255.832,224.039 255.771 C 223.940 255.710,223.381 255.923,222.797 256.243 C 222.213 256.564,221.681 256.772,221.614 256.706 C 221.548 256.639,221.371 256.687,221.221 256.811 C 220.954 257.033,219.211 257.613,218.869 257.594 C 218.774 257.588,218.642 257.663,218.577 257.759 C 218.511 257.855,217.930 258.054,217.285 258.201 C 216.641 258.348,216.025 258.491,215.918 258.520 C 215.811 258.548,215.525 258.615,215.282 258.669 C 215.040 258.723,214.744 258.827,214.624 258.902 C 214.505 258.976,214.175 259.059,213.893 259.088 C 212.836 259.194,210.840 259.510,210.840 259.570 C 210.840 259.659,209.983 259.791,209.507 259.775 C 209.111 259.762,208.998 259.827,209.105 260.006 C 209.212 260.182,209.159 260.176,208.924 259.986 C 208.709 259.811,208.594 259.794,208.594 259.937 C 208.594 260.058,208.501 260.156,208.387 260.156 C 208.273 260.156,208.231 260.074,208.293 259.973 C 208.363 259.861,208.171 259.858,207.793 259.967 C 207.455 260.063,206.904 260.141,206.568 260.139 C 206.232 260.137,205.518 260.188,204.980 260.253 C 203.657 260.412,203.684 260.411,203.076 260.290 C 202.781 260.230,202.539 260.247,202.539 260.327 C 202.539 260.406,201.858 260.444,201.025 260.411 C 200.193 260.378,198.962 260.330,198.291 260.303 C 197.620 260.276,197.070 260.323,197.070 260.407 C 197.070 260.492,196.917 260.480,196.729 260.382 C 196.541 260.284,195.684 260.148,194.824 260.080 C 193.021 259.937,192.748 259.897,192.480 259.731 C 192.373 259.665,191.883 259.616,191.392 259.624 C 190.901 259.631,190.374 259.558,190.221 259.461 C 190.067 259.365,189.678 259.278,189.355 259.268 C 189.033 259.257,188.638 259.200,188.477 259.139 C 187.989 258.956,186.663 258.619,185.938 258.494 C 185.562 258.430,185.014 258.257,184.720 258.111 C 184.427 257.966,183.966 257.870,183.695 257.900 C 183.424 257.930,183.203 257.882,183.203 257.793 C 183.203 257.705,182.786 257.508,182.275 257.356 C 181.765 257.204,180.996 256.920,180.566 256.725 C 180.137 256.531,179.697 256.360,179.590 256.346 C 179.482 256.331,179.079 256.183,178.694 256.015 C 178.309 255.848,177.803 255.650,177.571 255.577 C 177.339 255.503,177.148 255.355,177.148 255.249 C 177.148 255.142,177.077 255.099,176.989 255.153 C 176.902 255.207,176.067 254.862,175.134 254.386 C 174.201 253.909,173.436 253.585,173.435 253.664 C 173.433 253.744,173.367 253.714,173.288 253.598 C 173.209 253.482,172.683 253.138,172.119 252.834 C 171.555 252.530,171.094 252.208,171.094 252.117 C 171.094 252.027,171.028 251.967,170.947 251.985 C 170.669 252.045,169.822 251.591,169.322 251.114 C 169.045 250.850,168.628 250.573,168.394 250.499 C 168.160 250.425,167.969 250.296,167.969 250.214 C 167.969 250.131,167.742 249.960,167.466 249.834 C 167.189 249.708,166.583 249.287,166.119 248.899 C 165.655 248.511,165.216 248.182,165.144 248.169 C 165.072 248.156,164.558 247.721,164.001 247.203 C 163.444 246.685,162.747 246.117,162.451 245.940 C 162.156 245.764,161.914 245.506,161.914 245.368 C 161.914 245.230,161.834 245.117,161.737 245.117 C 161.639 245.117,160.916 244.502,160.129 243.750 C 159.342 242.998,158.625 242.383,158.537 242.383 C 158.448 242.383,158.424 242.304,158.484 242.207 C 158.544 242.111,158.285 241.762,157.910 241.432 C 157.534 241.102,157.227 240.779,157.227 240.713 C 157.227 240.648,156.897 240.256,156.494 239.843 C 156.091 239.429,155.454 238.673,155.078 238.163 C 154.702 237.653,154.307 237.138,154.199 237.018 C 154.092 236.898,153.916 236.660,153.809 236.488 C 153.701 236.317,153.042 235.348,152.344 234.335 C 151.646 233.321,150.811 231.971,150.488 231.334 C 150.166 230.697,149.845 230.132,149.775 230.078 C 149.568 229.920,147.898 226.516,147.762 225.977 C 147.749 225.923,147.585 225.593,147.399 225.244 C 147.213 224.895,147.128 224.608,147.212 224.606 C 147.295 224.605,147.271 224.539,147.158 224.460 C 146.965 224.325,146.232 222.593,146.188 222.168 C 146.140 221.694,145.564 220.711,145.415 220.846 C 145.324 220.929,145.316 220.882,145.396 220.743 C 145.477 220.603,145.477 220.340,145.398 220.157 C 145.239 219.790,145.188 219.621,145.064 219.043 C 145.018 218.828,144.931 218.521,144.871 218.359 C 144.564 217.540,144.336 216.701,144.336 216.390 C 144.336 216.198,144.236 215.794,144.114 215.491 C 143.992 215.189,143.862 214.722,143.825 214.453 C 143.789 214.185,143.730 213.745,143.694 213.477 C 143.658 213.208,143.555 212.770,143.466 212.504 C 143.377 212.237,143.282 211.666,143.254 211.234 C 143.226 210.802,143.184 210.405,143.161 210.352 C 143.138 210.298,143.099 210.166,143.074 210.059 C 143.049 209.951,143.007 209.819,142.982 209.766 C 142.956 209.712,142.904 209.097,142.867 208.398 C 142.785 206.859,142.599 204.395,142.565 204.395 C 142.454 204.395,142.515 199.160,142.627 199.091 C 142.708 199.041,142.683 198.829,142.572 198.621 C 142.460 198.413,142.440 198.242,142.526 198.242 C 142.675 198.242,142.714 197.871,142.788 195.752 C 142.806 195.242,142.902 194.722,143.002 194.597 C 143.114 194.457,143.110 194.326,142.992 194.252 C 142.872 194.178,142.899 193.943,143.064 193.625 C 143.210 193.345,143.291 193.017,143.245 192.896 C 143.199 192.775,143.298 192.061,143.463 191.309 C 143.826 189.664,143.893 189.335,144.015 188.574 C 144.067 188.252,144.240 187.571,144.399 187.061 C 144.558 186.550,144.631 186.131,144.561 186.130 C 144.491 186.128,144.527 186.062,144.641 185.983 C 144.816 185.862,145.377 183.813,145.321 183.496 C 145.311 183.440,145.524 182.997,145.795 182.513 C 146.065 182.028,146.272 181.568,146.256 181.490 C 146.195 181.210,146.530 180.273,146.690 180.273 C 146.779 180.273,146.819 180.098,146.777 179.883 C 146.736 179.668,146.783 179.492,146.882 179.492 C 146.982 179.492,147.120 179.266,147.189 178.989 C 147.259 178.712,147.524 178.053,147.779 177.525 C 148.034 176.997,148.242 176.432,148.242 176.270 C 148.242 176.109,148.311 175.977,148.395 175.977 C 148.480 175.977,148.806 175.427,149.121 174.756 C 149.435 174.084,149.746 173.491,149.812 173.438 C 149.877 173.384,149.994 173.208,150.071 173.047 C 150.216 172.742,150.545 172.184,150.876 171.680 C 150.982 171.519,151.070 171.328,151.071 171.256 C 151.073 171.184,151.293 170.876,151.560 170.572 C 151.828 170.268,152.212 169.712,152.415 169.336 C 152.618 168.960,152.838 168.608,152.905 168.555 C 153.099 168.400,153.516 167.708,153.642 167.334 C 153.705 167.146,153.885 166.992,154.043 166.992 C 154.201 166.992,154.294 166.886,154.251 166.756 C 154.207 166.625,154.551 166.150,155.016 165.699 C 155.480 165.248,155.859 164.827,155.859 164.765 C 155.859 164.587,157.259 162.976,159.082 161.056 C 159.297 160.830,159.477 160.557,159.482 160.449 C 159.486 160.342,159.588 160.273,159.708 160.297 C 159.828 160.321,160.241 159.991,160.627 159.564 C 161.012 159.138,161.400 158.789,161.490 158.789 C 161.579 158.789,161.770 158.571,161.912 158.304 C 162.055 158.037,162.335 157.767,162.534 157.704 C 162.733 157.641,162.837 157.493,162.764 157.375 C 162.680 157.239,162.745 157.204,162.942 157.279 C 163.143 157.356,163.365 157.225,163.575 156.905 C 163.753 156.633,163.951 156.464,164.015 156.528 C 164.078 156.591,164.291 156.401,164.486 156.105 C 164.681 155.809,164.842 155.636,164.842 155.721 C 164.843 155.805,164.954 155.785,165.088 155.675 C 166.078 154.864,166.577 154.492,166.676 154.492 C 166.802 154.492,167.424 154.010,167.998 153.467 C 168.197 153.279,168.359 153.175,168.359 153.236 C 168.359 153.297,168.615 153.165,168.927 152.943 C 169.239 152.721,169.550 152.539,169.618 152.539 C 169.758 152.539,170.846 151.789,171.251 151.414 C 171.397 151.279,171.597 151.218,171.695 151.279 C 171.794 151.340,171.875 151.295,171.875 151.179 C 171.875 151.062,172.105 150.880,172.385 150.773 C 172.666 150.666,173.391 150.292,173.997 149.941 C 174.995 149.362,175.705 149.029,178.271 147.935 C 178.728 147.740,179.103 147.488,179.105 147.375 C 179.106 147.261,179.193 147.300,179.297 147.461 C 179.423 147.656,179.487 147.673,179.489 147.510 C 179.491 147.375,179.624 147.266,179.785 147.266 C 179.946 147.266,180.078 147.190,180.078 147.097 C 180.078 147.004,180.276 146.942,180.518 146.959 C 180.759 146.975,181.144 146.872,181.373 146.730 C 181.743 146.499,185.216 145.405,186.230 145.200 C 186.445 145.157,187.280 144.944,188.086 144.728 C 188.892 144.511,189.964 144.296,190.469 144.249 C 190.974 144.203,191.567 144.068,191.787 143.951 C 192.077 143.796,192.188 143.795,192.188 143.950 C 192.188 144.068,192.292 144.099,192.421 144.020 C 192.549 143.940,193.088 143.848,193.619 143.815 C 194.150 143.781,194.682 143.678,194.802 143.587 C 194.922 143.495,195.433 143.436,195.939 143.455 C 196.445 143.474,196.947 143.435,197.055 143.369 C 197.227 143.263,198.173 143.261,198.438 143.367 " stroke="none" fill="#6c9494" fill-rule="evenodd"></path><path id="path1" d="M111.002 48.372 C 111.191 48.561,113.237 48.586,113.525 48.403 C 113.660 48.318,113.118 48.247,112.321 48.245 C 111.524 48.244,110.931 48.301,111.002 48.372 M113.867 48.420 C 113.867 48.619,114.367 48.589,114.578 48.378 C 114.652 48.303,114.523 48.242,114.290 48.242 C 114.058 48.242,113.867 48.322,113.867 48.420 M119.098 48.473 C 119.197 48.572,119.471 48.567,119.742 48.462 C 120.185 48.291,120.174 48.280,119.571 48.291 C 119.202 48.297,119.000 48.375,119.098 48.473 M121.680 48.318 C 121.680 48.360,121.981 48.430,122.350 48.473 C 122.718 48.516,122.977 48.482,122.924 48.397 C 122.829 48.244,121.680 48.171,121.680 48.318 M145.823 48.402 C 145.768 48.490,145.983 48.524,146.299 48.478 C 146.616 48.431,146.875 48.359,146.875 48.318 C 146.875 48.169,145.919 48.246,145.823 48.402 M253.125 48.318 C 253.125 48.359,253.384 48.431,253.701 48.478 C 254.017 48.524,254.232 48.490,254.177 48.402 C 254.081 48.246,253.125 48.169,253.125 48.318 M285.352 48.392 C 285.352 48.475,285.967 48.541,286.718 48.539 C 287.470 48.537,288.086 48.469,288.086 48.389 C 288.086 48.308,287.471 48.242,286.719 48.242 C 285.967 48.242,285.352 48.310,285.352 48.392 M104.229 48.584 C 104.112 48.774,105.396 48.771,105.585 48.581 C 105.664 48.502,105.412 48.438,105.025 48.438 C 104.637 48.438,104.279 48.503,104.229 48.584 M106.560 48.605 C 106.503 48.698,106.681 48.749,106.956 48.718 C 107.641 48.643,107.800 48.438,107.173 48.438 C 106.893 48.438,106.617 48.513,106.560 48.605 M290.774 48.576 C 291.017 48.622,291.368 48.621,291.555 48.572 C 291.742 48.523,291.543 48.485,291.113 48.487 C 290.684 48.489,290.531 48.529,290.774 48.576 M295.379 48.569 C 295.565 48.755,296.474 48.774,296.360 48.590 C 296.308 48.506,296.037 48.438,295.757 48.438 C 295.477 48.438,295.307 48.497,295.379 48.569 M315.761 75.472 C 316.062 75.731,316.343 75.909,316.385 75.867 C 316.480 75.773,315.586 75.015,315.370 75.006 C 315.283 75.003,315.459 75.212,315.761 75.472 M83.480 75.897 L 82.715 76.598 83.545 75.978 C 84.286 75.424,84.510 75.195,84.310 75.195 C 84.274 75.195,83.901 75.511,83.480 75.897 M78.902 79.346 C 78.711 79.740,78.718 79.750,78.964 79.446 C 79.114 79.260,79.295 79.165,79.365 79.235 C 79.435 79.305,79.492 79.259,79.492 79.134 C 79.492 78.750,79.128 78.881,78.902 79.346 M77.193 81.557 C 76.952 81.925,76.821 82.226,76.903 82.225 C 77.060 82.224,77.786 81.042,77.689 80.945 C 77.658 80.913,77.435 81.189,77.193 81.557 M297.557 82.816 C 297.489 82.925,297.339 82.955,297.222 82.883 C 297.092 82.803,297.066 82.843,297.155 82.987 C 297.264 83.163,297.367 83.167,297.567 83.000 C 297.714 82.879,297.908 82.825,297.999 82.880 C 298.089 82.936,298.291 82.901,298.447 82.803 C 298.660 82.668,298.600 82.622,298.205 82.620 C 297.916 82.619,297.624 82.707,297.557 82.816 M324.448 84.154 C 324.698 84.462,324.933 84.688,324.970 84.656 C 325.076 84.565,324.336 83.607,324.155 83.600 C 324.066 83.597,324.198 83.846,324.448 84.154 M306.740 84.568 C 306.671 84.679,306.750 84.712,306.923 84.645 C 307.090 84.581,307.227 84.626,307.227 84.745 C 307.227 84.864,307.325 84.961,307.446 84.961 C 307.597 84.961,307.590 84.870,307.422 84.668 C 307.140 84.328,306.909 84.295,306.740 84.568 M351.279 104.018 C 351.307 104.669,351.563 104.872,351.563 104.243 C 351.563 103.963,351.494 103.692,351.410 103.640 C 351.326 103.588,351.267 103.758,351.279 104.018 M48.255 112.191 C 48.248 113.041,48.287 113.692,48.341 113.638 C 48.530 113.449,48.602 111.474,48.435 111.060 C 48.319 110.774,48.263 111.127,48.255 112.191 M351.461 113.282 C 351.459 114.033,351.525 114.648,351.608 114.648 C 351.690 114.648,351.758 114.033,351.758 113.281 C 351.758 112.529,351.692 111.914,351.611 111.914 C 351.531 111.914,351.463 112.530,351.461 113.282 M48.242 114.246 C 48.242 114.455,48.313 114.669,48.398 114.722 C 48.484 114.775,48.555 114.604,48.555 114.343 C 48.555 114.081,48.484 113.867,48.398 113.867 C 48.313 113.867,48.242 114.038,48.242 114.246 M48.288 122.461 C 48.288 122.837,48.328 122.991,48.377 122.803 C 48.426 122.615,48.426 122.307,48.377 122.119 C 48.328 121.931,48.288 122.085,48.288 122.461 M351.608 122.461 C 351.608 122.837,351.648 122.991,351.697 122.803 C 351.746 122.615,351.746 122.307,351.697 122.119 C 351.648 121.931,351.608 122.085,351.608 122.461 M206.498 125.854 C 206.436 125.955,206.480 125.978,206.597 125.906 C 206.714 125.834,206.865 125.866,206.934 125.977 C 207.070 126.197,207.422 126.057,207.422 125.782 C 207.422 125.557,206.644 125.618,206.498 125.854 M189.149 126.412 C 189.372 126.536,189.557 126.536,189.682 126.412 C 189.807 126.287,189.688 126.221,189.340 126.221 C 188.891 126.221,188.861 126.250,189.149 126.412 M176.367 129.486 C 176.367 129.590,176.235 129.625,176.074 129.563 C 175.913 129.501,175.781 129.494,175.781 129.548 C 175.781 129.805,176.366 129.827,176.572 129.578 C 176.738 129.379,176.742 129.297,176.586 129.297 C 176.466 129.297,176.367 129.382,176.367 129.486 M173.535 130.469 C 173.469 130.576,173.259 130.664,173.068 130.664 C 172.877 130.664,172.721 130.791,172.721 130.947 C 172.721 131.176,172.817 131.163,173.226 130.877 C 173.503 130.683,173.853 130.567,174.002 130.620 C 174.167 130.678,174.220 130.629,174.137 130.494 C 173.968 130.221,173.695 130.210,173.535 130.469 M229.187 130.880 C 229.118 130.990,229.115 131.133,229.180 131.198 C 229.244 131.262,229.297 131.209,229.297 131.080 C 229.297 130.903,229.396 130.899,229.704 131.064 C 229.928 131.184,230.148 131.245,230.193 131.200 C 230.238 131.155,230.058 131.019,229.793 130.898 C 229.466 130.750,229.271 130.744,229.187 130.880 M238.228 135.209 C 238.171 135.358,238.312 135.449,238.599 135.449 C 239.159 135.449,239.168 135.422,238.691 135.167 C 238.424 135.023,238.295 135.035,238.228 135.209 M163.176 135.364 C 163.106 135.478,162.837 135.651,162.579 135.749 C 162.321 135.848,162.116 136.040,162.125 136.177 C 162.137 136.373,162.161 136.374,162.239 136.182 C 162.293 136.047,162.448 135.938,162.584 135.938 C 162.719 135.938,162.989 135.762,163.184 135.547 C 163.378 135.332,163.485 135.156,163.421 135.156 C 163.357 135.156,163.247 135.250,163.176 135.364 M156.134 139.889 C 155.906 140.156,155.882 140.233,156.073 140.086 C 156.244 139.955,156.419 139.881,156.463 139.923 C 156.507 139.965,156.656 139.877,156.795 139.726 C 157.001 139.503,156.998 139.453,156.776 139.453 C 156.628 139.453,156.338 139.649,156.134 139.889 M197.007 143.408 C 196.706 143.629,196.720 143.655,197.150 143.680 C 197.484 143.699,197.596 143.625,197.523 143.435 C 197.397 143.107,197.417 143.108,197.007 143.408 M150.192 144.632 C 149.830 145.006,149.587 145.313,149.654 145.313 C 149.824 145.313,151.009 144.108,150.923 144.022 C 150.884 143.983,150.555 144.257,150.192 144.632 M185.633 145.404 C 185.425 145.562,185.359 145.693,185.487 145.697 C 185.614 145.700,185.774 145.614,185.842 145.505 C 185.909 145.395,186.060 145.365,186.176 145.437 C 186.303 145.515,186.332 145.477,186.249 145.343 C 186.075 145.061,186.088 145.059,185.633 145.404 M48.317 145.985 C 48.258 146.140,48.244 146.425,48.286 146.619 C 48.333 146.840,48.400 146.734,48.464 146.338 C 48.570 145.673,48.501 145.506,48.317 145.985 M351.539 146.332 C 351.629 146.874,351.657 146.902,351.718 146.511 C 351.758 146.257,351.710 145.968,351.612 145.870 C 351.504 145.761,351.475 145.944,351.539 146.332 M222.529 147.681 C 222.738 147.804,222.962 147.820,223.062 147.719 C 223.163 147.618,223.012 147.530,222.702 147.508 C 222.233 147.475,222.212 147.497,222.529 147.681 M225.477 148.873 C 225.700 148.997,225.885 148.997,226.010 148.873 C 226.135 148.748,226.016 148.682,225.668 148.682 C 225.219 148.682,225.189 148.711,225.477 148.873 M142.963 151.862 C 142.828 152.025,142.774 152.214,142.843 152.283 C 142.912 152.352,142.969 152.313,142.969 152.195 C 142.969 152.078,143.123 151.951,143.311 151.914 C 143.534 151.870,143.576 151.798,143.430 151.707 C 143.308 151.630,143.098 151.700,142.963 151.862 M234.208 153.805 C 234.461 154.072,234.747 154.292,234.843 154.294 C 234.939 154.295,234.781 154.077,234.491 153.809 C 233.811 153.178,233.611 153.175,234.208 153.805 M260.645 154.297 C 260.578 154.404,260.622 154.492,260.742 154.492 C 260.862 154.492,260.906 154.580,260.840 154.688 C 260.773 154.795,260.859 154.883,261.031 154.883 C 261.281 154.883,261.301 154.807,261.133 154.492 C 260.896 154.051,260.817 154.019,260.645 154.297 M139.661 156.114 L 139.185 156.738 139.807 156.165 C 140.455 155.568,140.529 155.461,140.283 155.480 C 140.203 155.486,139.923 155.771,139.661 156.114 M262.305 156.206 C 262.305 156.325,262.394 156.477,262.503 156.545 C 262.612 156.612,262.660 156.735,262.609 156.817 C 262.559 156.899,262.646 156.966,262.802 156.966 C 263.035 156.966,263.024 156.891,262.747 156.559 C 262.560 156.335,262.384 156.116,262.356 156.071 C 262.328 156.026,262.305 156.087,262.305 156.206 M160.459 159.881 C 160.288 160.052,160.016 160.211,159.854 160.235 C 159.692 160.259,159.584 160.330,159.614 160.392 C 159.644 160.455,159.528 160.669,159.356 160.868 C 158.568 161.782,158.838 161.715,159.836 160.749 C 160.442 160.162,160.938 159.656,160.938 159.626 C 160.938 159.492,160.747 159.594,160.459 159.881 M241.406 159.707 C 241.406 159.801,241.865 160.314,242.426 160.847 C 242.986 161.380,243.272 161.603,243.060 161.343 C 242.351 160.469,241.406 159.535,241.406 159.707 M266.797 163.042 C 266.797 163.268,266.880 163.505,266.982 163.568 C 267.085 163.631,267.131 163.494,267.086 163.260 C 266.973 162.677,266.797 162.543,266.797 163.042 M246.497 165.348 C 246.775 165.682,247.133 165.716,247.027 165.398 C 246.986 165.273,246.798 165.148,246.609 165.121 C 246.335 165.080,246.313 165.125,246.497 165.348 M154.299 166.892 C 154.166 167.052,153.994 167.144,153.917 167.096 C 153.839 167.048,153.776 167.139,153.776 167.297 C 153.776 167.511,153.894 167.474,154.232 167.157 C 154.482 166.921,154.688 166.700,154.688 166.665 C 154.688 166.524,154.527 166.618,154.299 166.892 M152.862 168.685 C 152.663 168.950,152.541 169.208,152.591 169.258 C 152.641 169.307,152.832 169.118,153.016 168.837 C 153.451 168.174,153.331 168.057,152.862 168.685 M151.072 171.307 C 151.136 171.477,151.054 171.730,150.888 171.868 C 150.722 172.005,150.586 172.242,150.586 172.393 C 150.586 172.545,150.454 172.719,150.293 172.781 C 150.132 172.843,150.001 173.082,150.003 173.312 C 150.006 173.743,150.252 173.445,150.706 172.461 C 150.780 172.300,150.975 172.012,151.138 171.822 C 151.375 171.547,151.386 171.426,151.195 171.236 C 151.004 171.046,150.978 171.061,151.072 171.307 M252.347 174.170 C 252.355 174.598,252.729 174.882,252.731 174.463 C 252.733 174.221,252.646 174.023,252.539 174.023 C 252.432 174.023,252.345 174.089,252.347 174.170 M272.154 174.382 C 272.154 174.578,272.255 174.740,272.378 174.740 C 272.502 174.740,272.561 174.578,272.509 174.382 C 272.458 174.185,272.357 174.023,272.285 174.023 C 272.213 174.023,272.154 174.185,272.154 174.382 M272.804 175.942 C 272.743 176.176,272.778 176.420,272.883 176.484 C 273.184 176.670,273.265 176.462,273.083 175.970 L 272.915 175.517 272.804 175.942 M147.217 178.811 C 147.106 179.395,147.181 179.429,147.455 178.918 C 147.569 178.704,147.582 178.493,147.484 178.432 C 147.388 178.373,147.268 178.544,147.217 178.811 M254.901 179.492 C 254.885 179.877,255.106 180.163,255.469 180.227 C 255.716 180.271,255.713 180.240,255.452 180.032 C 255.281 179.896,255.090 179.653,255.028 179.492 C 254.926 179.232,254.912 179.232,254.901 179.492 M275.156 183.828 C 275.285 183.957,275.391 184.216,275.391 184.403 C 275.391 184.590,275.473 184.793,275.573 184.856 C 275.687 184.926,275.687 184.727,275.573 184.331 C 275.473 183.981,275.391 183.671,275.391 183.644 C 275.391 183.616,275.285 183.594,275.156 183.594 C 274.974 183.594,274.974 183.646,275.156 183.828 M126.294 185.376 C 126.225 185.719,126.205 186.036,126.250 186.080 C 126.294 186.125,126.391 185.885,126.465 185.547 C 126.539 185.209,126.559 184.892,126.509 184.843 C 126.459 184.793,126.363 185.033,126.294 185.376 M275.718 185.693 C 275.621 185.859,275.910 186.719,276.063 186.719 C 276.118 186.719,276.082 186.508,275.984 186.251 C 275.886 185.993,275.859 185.729,275.924 185.665 C 275.989 185.600,275.988 185.547,275.923 185.547 C 275.858 185.547,275.765 185.613,275.718 185.693 M144.661 186.263 C 144.590 186.335,144.537 186.576,144.544 186.800 C 144.555 187.174,144.571 187.169,144.743 186.739 C 144.934 186.261,144.895 186.030,144.661 186.263 M142.789 197.607 C 142.780 197.742,142.781 197.908,142.790 197.976 C 142.799 198.045,142.689 198.175,142.546 198.266 C 142.342 198.395,142.340 198.432,142.535 198.435 C 142.834 198.438,143.046 197.966,142.905 197.614 C 142.827 197.420,142.801 197.419,142.789 197.607 M124.414 201.855 C 124.414 202.590,124.473 203.131,124.546 203.058 C 124.703 202.901,124.685 200.792,124.525 200.632 C 124.464 200.571,124.414 201.121,124.414 201.855 M257.533 217.104 C 257.365 217.273,257.227 217.507,257.227 217.625 C 257.227 217.742,257.249 217.802,257.277 217.757 C 257.305 217.712,257.495 217.478,257.698 217.236 C 258.119 216.736,257.998 216.639,257.533 217.104 M254.723 224.652 C 254.436 224.939,254.425 225.195,254.699 225.195 C 254.813 225.195,254.856 225.115,254.795 225.017 C 254.735 224.918,254.795 224.799,254.930 224.750 C 255.065 224.702,255.126 224.608,255.065 224.542 C 255.004 224.475,254.850 224.525,254.723 224.652 M273.724 225.293 C 273.674 225.454,273.590 225.722,273.537 225.889 C 273.485 226.056,273.518 226.145,273.612 226.087 C 273.705 226.030,273.824 225.761,273.875 225.491 C 273.977 224.957,273.872 224.819,273.724 225.293 M151.006 232.412 C 151.049 232.541,151.148 232.640,151.226 232.632 C 151.459 232.608,151.414 232.340,151.162 232.256 C 151.033 232.213,150.963 232.283,151.006 232.412 M270.313 234.180 C 270.093 234.609,269.958 234.961,270.012 234.961 C 270.065 234.961,270.289 234.609,270.508 234.180 C 270.727 233.750,270.862 233.398,270.809 233.398 C 270.755 233.398,270.532 233.750,270.313 234.180 M153.170 235.547 C 153.304 235.762,153.482 235.938,153.564 235.938 C 153.647 235.938,153.604 235.762,153.470 235.547 C 153.336 235.332,153.159 235.156,153.076 235.156 C 152.994 235.156,153.036 235.332,153.170 235.547 M247.990 236.523 C 247.934 236.738,247.958 236.914,248.042 236.914 C 248.127 236.914,248.243 236.738,248.299 236.523 C 248.355 236.309,248.332 236.133,248.247 236.133 C 248.162 236.133,248.046 236.309,247.990 236.523 M246.387 238.477 C 246.078 238.799,245.908 239.058,246.008 239.052 C 246.180 239.042,247.187 237.891,247.024 237.891 C 246.982 237.891,246.695 238.154,246.387 238.477 M158.464 242.100 C 158.464 242.246,158.537 242.320,158.626 242.265 C 158.716 242.210,158.789 242.258,158.789 242.371 C 158.789 242.485,158.874 242.578,158.978 242.578 C 159.235 242.578,159.015 242.046,158.709 241.928 C 158.574 241.876,158.464 241.954,158.464 242.100 M159.472 243.133 C 159.685 243.385,160.036 243.681,160.252 243.792 C 160.667 244.004,160.606 243.939,159.669 243.161 C 159.105 242.693,159.098 242.692,159.472 243.133 M238.371 246.688 C 238.055 247.038,238.051 247.071,238.341 246.960 C 238.523 246.890,238.672 246.750,238.672 246.647 C 238.672 246.545,238.773 246.524,238.897 246.601 C 239.037 246.687,239.070 246.654,238.983 246.515 C 238.801 246.220,238.793 246.222,238.371 246.688 M48.242 253.602 C 48.242 253.864,48.314 254.123,48.402 254.177 C 48.490 254.232,48.524 254.017,48.478 253.701 C 48.375 253.003,48.242 252.947,48.242 253.602 M351.539 253.668 C 351.475 254.056,351.504 254.239,351.612 254.130 C 351.710 254.032,351.758 253.743,351.718 253.489 C 351.657 253.098,351.629 253.126,351.539 253.668 M178.125 255.641 C 178.125 255.736,178.301 255.860,178.516 255.916 C 178.977 256.037,179.046 255.759,178.597 255.587 C 178.187 255.430,178.125 255.437,178.125 255.641 M214.193 258.724 C 214.121 258.796,214.064 258.949,214.065 259.066 C 214.068 259.209,214.115 259.206,214.212 259.056 C 214.291 258.934,214.531 258.790,214.746 258.737 C 215.124 258.642,215.123 258.638,214.730 258.616 C 214.506 258.604,214.264 258.652,214.193 258.724 M188.352 259.083 C 189.059 259.452,189.167 259.451,188.797 259.082 C 188.636 258.921,188.344 258.790,188.149 258.790 C 187.895 258.791,187.953 258.875,188.352 259.083 M166.279 270.142 C 166.488 270.265,166.712 270.281,166.812 270.180 C 166.913 270.079,166.762 269.991,166.452 269.969 C 165.983 269.936,165.962 269.958,166.279 270.142 M168.386 271.175 C 168.750 271.487,169.316 271.660,169.229 271.432 C 169.175 271.291,168.947 271.162,168.723 271.145 C 168.499 271.129,168.347 271.142,168.386 271.175 M221.631 275.330 C 221.443 275.379,221.289 275.492,221.289 275.582 C 221.289 275.671,221.465 275.699,221.680 275.643 C 221.895 275.586,222.070 275.463,222.070 275.368 C 222.070 275.273,222.048 275.206,222.021 275.218 C 221.995 275.230,221.819 275.281,221.631 275.330 M351.547 277.686 C 351.640 278.360,351.654 278.373,351.718 277.857 C 351.757 277.549,351.711 277.219,351.617 277.125 C 351.519 277.027,351.489 277.266,351.547 277.686 M48.288 277.734 C 48.288 278.110,48.328 278.264,48.377 278.076 C 48.426 277.888,48.426 277.581,48.377 277.393 C 48.328 277.205,48.288 277.358,48.288 277.734 M191.335 277.638 C 191.267 277.815,191.336 277.930,191.510 277.930 C 191.826 277.930,191.898 277.624,191.622 277.454 C 191.526 277.395,191.397 277.477,191.335 277.638 M210.156 277.734 L 209.473 277.878 210.096 277.904 C 210.439 277.918,210.773 277.842,210.840 277.734 C 210.906 277.627,210.933 277.551,210.900 277.565 C 210.867 277.579,210.532 277.655,210.156 277.734 M351.494 280.319 C 351.431 280.559,351.452 280.827,351.539 280.914 C 351.626 281.001,351.705 280.805,351.715 280.478 C 351.735 279.774,351.652 279.715,351.494 280.319 M351.548 285.400 C 351.424 285.805,351.438 286.133,351.580 286.133 C 351.678 286.133,351.758 285.957,351.758 285.742 C 351.758 285.428,351.612 285.191,351.548 285.400 M351.539 286.572 C 351.448 287.519,351.490 288.920,351.611 288.995 C 351.692 289.045,351.758 288.465,351.758 287.707 C 351.758 286.536,351.614 285.791,351.539 286.572 M48.242 289.095 C 48.242 289.865,48.284 290.453,48.334 290.403 C 48.516 290.221,48.597 287.695,48.421 287.695 C 48.323 287.695,48.242 288.325,48.242 289.095 M351.319 290.527 C 351.371 290.796,351.446 291.016,351.488 291.016 C 351.529 291.016,351.563 290.796,351.563 290.527 C 351.563 290.259,351.487 290.039,351.394 290.039 C 351.302 290.039,351.268 290.259,351.319 290.527 M351.378 292.480 C 351.238 293.118,351.256 293.549,351.416 293.389 C 351.515 293.290,351.556 293.001,351.508 292.747 C 351.460 292.493,351.401 292.373,351.378 292.480 M351.375 294.434 C 351.244 294.907,351.285 295.864,351.430 295.718 C 351.519 295.630,351.555 295.261,351.510 294.898 C 351.466 294.535,351.405 294.326,351.375 294.434 M323.995 316.455 C 323.639 316.912,323.504 317.161,323.695 317.010 C 324.074 316.709,324.889 315.625,324.737 315.625 C 324.685 315.625,324.351 315.999,323.995 316.455 M320.765 320.635 C 320.835 320.705,320.740 320.886,320.554 321.036 C 320.250 321.282,320.260 321.289,320.654 321.098 C 321.119 320.872,321.250 320.508,320.866 320.508 C 320.741 320.508,320.695 320.565,320.765 320.635 M318.311 322.625 C 318.016 322.803,317.774 323.021,317.774 323.109 C 317.774 323.234,318.499 322.815,319.124 322.329 C 319.385 322.126,318.761 322.353,318.311 322.625 M82.617 323.644 C 82.617 323.758,82.695 323.803,82.790 323.744 C 83.022 323.601,83.434 324.114,83.250 324.317 C 83.171 324.405,83.221 324.410,83.362 324.328 C 83.567 324.210,83.551 324.104,83.283 323.809 C 82.912 323.398,82.617 323.326,82.617 323.644 M110.059 351.588 C 109.673 351.669,109.957 351.720,110.889 351.735 C 111.667 351.747,112.305 351.681,112.305 351.587 C 112.305 351.397,110.965 351.397,110.059 351.588 M128.320 351.563 L 127.832 351.719 128.369 351.738 C 128.665 351.749,128.906 351.670,128.906 351.563 C 128.906 351.455,128.884 351.376,128.857 351.387 C 128.831 351.397,128.589 351.476,128.320 351.563 M145.870 351.612 C 145.968 351.710,146.257 351.758,146.511 351.718 C 146.902 351.657,146.874 351.629,146.332 351.539 C 145.944 351.475,145.761 351.504,145.870 351.612 M253.613 351.563 L 253.027 351.712 253.553 351.735 C 253.842 351.747,254.133 351.670,254.199 351.563 C 254.266 351.455,254.293 351.378,254.260 351.390 C 254.226 351.403,253.936 351.480,253.613 351.563 M285.278 351.602 C 285.331 351.688,285.545 351.758,285.754 351.758 C 285.962 351.758,286.133 351.688,286.133 351.602 C 286.133 351.516,285.919 351.445,285.657 351.445 C 285.396 351.445,285.225 351.516,285.278 351.602 M286.719 351.580 C 286.413 351.667,286.809 351.726,287.777 351.738 C 288.627 351.749,289.265 351.700,289.195 351.630 C 289.014 351.449,287.302 351.415,286.719 351.580 M121.924 351.697 C 122.112 351.746,122.419 351.746,122.607 351.697 C 122.795 351.648,122.642 351.608,122.266 351.608 C 121.890 351.608,121.736 351.648,121.924 351.697 M277.197 351.697 C 277.385 351.746,277.693 351.746,277.881 351.697 C 278.069 351.648,277.915 351.608,277.539 351.608 C 277.163 351.608,277.009 351.648,277.197 351.697 " stroke="none" fill="#649494" fill-rule="evenodd"></path><path id="path2" d="M346.012 80.078 C 346.157 80.622,346.249 80.769,346.371 80.647 C 346.416 80.603,346.324 80.346,346.167 80.078 L 345.882 79.590 346.012 80.078 M304.492 83.464 C 304.492 83.514,304.776 83.654,305.122 83.775 C 305.469 83.896,305.667 83.915,305.562 83.816 C 305.340 83.608,304.492 83.329,304.492 83.464 M310.742 103.077 C 310.742 103.195,310.504 103.583,310.212 103.940 C 309.776 104.474,309.762 104.521,310.132 104.201 C 310.659 103.748,311.018 103.140,310.856 102.978 C 310.793 102.916,310.742 102.960,310.742 103.077 M174.512 130.183 C 174.023 130.407,173.995 130.453,174.341 130.460 C 174.570 130.465,174.866 130.337,175.000 130.176 C 175.285 129.833,175.276 129.833,174.512 130.183 M235.547 133.799 C 236.266 134.287,236.628 134.403,236.160 133.995 C 235.906 133.774,235.599 133.595,235.476 133.597 C 235.354 133.598,235.386 133.689,235.547 133.799 M245.703 140.033 C 245.703 140.144,245.774 140.234,245.862 140.234 C 245.949 140.234,246.212 140.414,246.448 140.633 C 246.683 140.852,246.875 140.956,246.875 140.865 C 246.875 140.773,246.611 140.504,246.289 140.265 C 245.967 140.027,245.703 139.923,245.703 140.033 M250.138 143.531 C 250.588 143.963,250.891 144.086,250.684 143.751 C 250.618 143.644,250.371 143.458,250.136 143.336 L 249.707 143.116 250.138 143.531 M148.606 146.272 C 148.352 146.478,148.188 146.680,148.242 146.722 C 148.296 146.764,148.552 146.596,148.810 146.348 C 149.380 145.803,149.246 145.753,148.606 146.272 M254.883 147.804 C 254.883 147.911,255.015 148.108,255.176 148.242 C 255.339 148.378,255.469 148.399,255.469 148.290 C 255.469 148.183,255.337 147.985,255.176 147.852 C 255.012 147.716,254.883 147.695,254.883 147.804 M166.001 155.011 L 165.527 155.531 166.162 155.072 C 166.822 154.596,166.907 154.492,166.636 154.492 C 166.547 154.492,166.261 154.726,166.001 155.011 M138.965 157.298 C 138.388 157.968,138.279 158.233,138.771 157.770 C 139.081 157.477,139.295 157.201,139.247 157.155 C 139.199 157.108,139.072 157.173,138.965 157.298 M151.401 170.722 C 151.039 171.301,151.200 171.344,151.620 170.782 C 151.813 170.524,151.901 170.313,151.814 170.313 C 151.727 170.313,151.541 170.497,151.401 170.722 M129.554 174.756 C 129.487 174.944,129.395 175.186,129.350 175.293 C 129.305 175.400,129.406 175.318,129.575 175.109 C 129.882 174.731,129.975 174.414,129.779 174.414 C 129.722 174.414,129.621 174.568,129.554 174.756 M256.985 185.065 C 257.035 185.330,257.146 185.547,257.231 185.547 C 257.412 185.547,257.246 184.801,257.036 184.671 C 256.957 184.622,256.934 184.799,256.985 185.065 M124.655 200.977 C 124.655 201.353,124.695 201.506,124.744 201.318 C 124.793 201.130,124.793 200.823,124.744 200.635 C 124.695 200.447,124.655 200.601,124.655 200.977 M142.493 201.348 C 142.358 201.566,142.428 202.559,142.568 202.419 C 142.680 202.307,142.767 201.172,142.664 201.172 C 142.630 201.172,142.552 201.251,142.493 201.348 M259.378 201.904 C 259.376 202.253,259.409 202.539,259.450 202.539 C 259.627 202.539,259.703 201.778,259.549 201.535 C 259.435 201.355,259.380 201.473,259.378 201.904 M124.790 206.689 C 124.666 207.092,124.679 207.442,124.821 207.529 C 124.918 207.590,124.979 207.414,124.956 207.140 C 124.921 206.715,124.845 206.509,124.790 206.689 M128.817 227.051 C 128.890 227.266,129.031 227.727,129.132 228.076 C 129.233 228.425,129.357 228.711,129.407 228.711 C 129.558 228.711,129.264 227.675,128.964 227.148 C 128.792 226.846,128.736 226.809,128.817 227.051 M271.020 232.136 C 270.953 232.311,270.906 232.600,270.915 232.780 C 270.924 232.959,271.009 232.846,271.104 232.529 C 271.288 231.913,271.223 231.608,271.020 232.136 M133.789 238.446 C 133.789 238.537,133.978 238.779,134.210 238.983 L 134.631 239.355 134.285 238.818 C 133.929 238.265,133.789 238.160,133.789 238.446 M258.104 252.540 C 257.909 252.756,257.796 252.978,257.852 253.035 C 257.909 253.091,258.101 252.915,258.279 252.643 C 258.668 252.049,258.590 252.003,258.104 252.540 M200.635 260.374 C 200.841 260.490,201.100 260.497,201.289 260.392 C 201.524 260.260,201.439 260.212,200.947 260.199 C 200.421 260.185,200.360 260.219,200.635 260.374 M223.340 274.805 C 223.094 274.910,223.058 274.973,223.242 274.973 C 223.403 274.973,223.711 274.897,223.926 274.805 C 224.172 274.699,224.208 274.637,224.023 274.637 C 223.862 274.637,223.555 274.712,223.340 274.805 M219.971 275.787 C 219.317 276.050,219.439 276.184,220.117 275.947 C 220.439 275.835,220.703 275.708,220.703 275.664 C 220.703 275.549,220.465 275.588,219.971 275.787 M216.113 276.758 L 215.723 276.926 216.113 276.936 C 216.328 276.942,216.636 276.862,216.797 276.758 C 217.185 276.507,216.697 276.507,216.113 276.758 " stroke="none" fill="#6c949c" fill-rule="evenodd"></path><path id="path3" d="M114.993 48.380 C 115.235 48.427,115.587 48.425,115.774 48.376 C 115.960 48.327,115.762 48.289,115.332 48.291 C 114.902 48.294,114.750 48.334,114.993 48.380 M282.813 48.319 C 282.813 48.362,283.164 48.430,283.594 48.471 C 284.023 48.512,284.375 48.477,284.375 48.394 C 284.375 48.310,284.023 48.242,283.594 48.242 C 283.164 48.242,282.813 48.277,282.813 48.319 M294.336 48.512 C 294.336 48.686,295.126 48.776,295.226 48.614 C 295.286 48.517,295.111 48.438,294.836 48.438 C 294.561 48.438,294.336 48.471,294.336 48.512 M333.710 61.957 C 334.215 62.545,334.404 62.728,334.967 63.178 C 335.232 63.389,335.013 63.103,334.480 62.543 C 333.509 61.522,333.011 61.143,333.710 61.957 M65.137 62.891 C 64.717 63.320,64.458 63.670,64.560 63.668 C 64.728 63.665,66.133 62.109,65.969 62.109 C 65.931 62.109,65.556 62.461,65.137 62.891 M62.402 65.625 C 61.873 66.162,61.506 66.602,61.587 66.602 C 61.735 66.602,63.477 64.875,63.477 64.728 C 63.477 64.560,63.335 64.678,62.402 65.625 M336.822 65.029 C 337.414 65.764,338.312 66.636,338.394 66.554 C 338.435 66.513,338.011 66.046,337.453 65.516 C 336.895 64.985,336.611 64.766,336.822 65.029 M78.748 79.695 C 78.513 79.914,78.320 80.149,78.320 80.217 C 78.320 80.286,78.540 80.135,78.809 79.883 C 79.267 79.453,79.380 79.297,79.236 79.297 C 79.203 79.297,78.983 79.476,78.748 79.695 M289.167 88.005 C 288.985 88.283,288.887 88.561,288.949 88.624 C 289.012 88.686,289.063 88.651,289.063 88.546 C 289.063 88.441,289.242 88.163,289.461 87.927 C 289.680 87.692,289.778 87.500,289.679 87.500 C 289.579 87.500,289.349 87.727,289.167 88.005 M286.719 96.994 C 286.719 97.809,286.841 97.821,286.986 97.020 C 287.039 96.729,287.001 96.440,286.901 96.378 C 286.801 96.317,286.719 96.593,286.719 96.994 M351.305 104.834 C 351.259 104.915,351.291 105.156,351.378 105.371 C 351.515 105.712,351.537 105.694,351.549 105.225 C 351.562 104.695,351.471 104.548,351.305 104.834 M48.305 115.820 C 48.305 116.519,48.340 116.804,48.383 116.455 C 48.427 116.106,48.427 115.535,48.383 115.186 C 48.340 114.836,48.305 115.122,48.305 115.820 M351.529 116.406 C 351.570 116.836,351.638 117.188,351.681 117.188 C 351.723 117.188,351.758 116.836,351.758 116.406 C 351.758 115.977,351.690 115.625,351.606 115.625 C 351.523 115.625,351.488 115.977,351.529 116.406 M205.117 125.494 C 205.311 125.689,206.066 125.762,205.951 125.576 C 205.888 125.474,205.651 125.391,205.425 125.391 C 205.198 125.391,205.060 125.437,205.117 125.494 M153.516 141.930 C 153.516 142.039,153.318 142.223,153.076 142.340 C 152.834 142.456,152.730 142.558,152.844 142.565 C 153.172 142.586,153.823 142.039,153.662 141.878 C 153.581 141.798,153.516 141.821,153.516 141.930 M253.320 146.346 C 253.481 146.486,253.734 146.728,253.881 146.884 C 254.111 147.127,254.119 147.108,253.936 146.751 C 253.818 146.522,253.566 146.281,253.375 146.214 C 253.072 146.108,253.065 146.126,253.320 146.346 M147.170 147.459 C 146.862 147.780,146.648 148.074,146.694 148.112 C 146.740 148.150,147.028 147.887,147.334 147.528 C 148.025 146.717,147.922 146.674,147.170 147.459 M143.935 150.928 L 143.262 151.660 143.994 150.987 C 144.676 150.361,144.816 150.195,144.667 150.195 C 144.635 150.195,144.305 150.525,143.935 150.928 M240.430 158.722 C 240.430 158.829,240.671 159.129,240.967 159.390 L 241.504 159.863 241.016 159.277 C 240.747 158.955,240.505 158.655,240.479 158.610 C 240.452 158.565,240.430 158.616,240.430 158.722 M264.240 159.147 C 264.346 159.344,264.587 159.629,264.777 159.782 C 265.021 159.978,264.992 159.874,264.676 159.424 C 264.194 158.736,263.931 158.569,264.240 159.147 M245.410 164.063 C 245.605 164.277,245.851 164.453,245.959 164.453 C 246.066 164.453,245.951 164.277,245.703 164.063 C 245.455 163.848,245.209 163.672,245.155 163.672 C 245.101 163.672,245.216 163.848,245.410 164.063 M128.734 176.498 C 128.721 176.623,128.654 176.887,128.585 177.084 C 128.486 177.361,128.512 177.391,128.701 177.218 C 128.834 177.095,128.901 176.831,128.850 176.632 C 128.798 176.433,128.746 176.372,128.734 176.498 M258.984 195.985 C 258.984 196.420,259.290 196.506,259.322 196.080 C 259.338 195.873,259.268 195.703,259.168 195.703 C 259.067 195.703,258.984 195.830,258.984 195.985 M277.225 197.748 C 277.296 198.230,277.539 198.335,277.539 197.884 C 277.539 197.651,277.459 197.461,277.361 197.461 C 277.263 197.461,277.202 197.590,277.225 197.748 M259.218 198.438 C 259.194 198.760,259.249 199.023,259.342 199.023 C 259.435 199.023,259.518 198.760,259.528 198.438 C 259.537 198.115,259.481 197.852,259.403 197.852 C 259.326 197.852,259.243 198.115,259.218 198.438 M124.414 199.902 C 124.414 200.278,124.448 200.586,124.490 200.586 C 124.532 200.586,124.603 200.278,124.646 199.902 C 124.690 199.526,124.656 199.219,124.570 199.219 C 124.484 199.219,124.414 199.526,124.414 199.902 M124.544 203.060 C 124.369 203.235,124.384 204.533,124.564 204.816 C 124.642 204.940,124.707 204.566,124.707 203.986 C 124.707 203.406,124.700 202.931,124.691 202.930 C 124.682 202.930,124.616 202.988,124.544 203.060 M146.785 223.730 C 146.911 224.335,147.019 224.539,147.140 224.398 C 147.179 224.353,147.087 224.053,146.937 223.730 L 146.663 223.145 146.785 223.730 M133.314 237.500 C 133.717 238.336,133.790 238.425,133.785 238.070 C 133.782 237.917,133.601 237.573,133.382 237.305 L 132.984 236.816 133.314 237.500 M265.067 243.387 C 264.929 243.608,264.860 243.831,264.912 243.883 C 264.964 243.936,265.110 243.788,265.234 243.555 C 265.530 243.003,265.392 242.866,265.067 243.387 M143.945 252.870 C 143.945 252.977,144.121 253.224,144.336 253.418 C 144.551 253.612,144.727 253.727,144.727 253.673 C 144.727 253.620,144.551 253.373,144.336 253.125 C 144.121 252.877,143.945 252.762,143.945 252.870 M256.169 254.715 C 255.533 255.344,255.055 255.901,255.105 255.952 C 255.156 256.002,255.761 255.475,256.451 254.780 C 257.140 254.085,257.618 253.528,257.514 253.543 C 257.410 253.558,256.804 254.086,256.169 254.715 M253.962 256.954 C 253.724 257.211,253.599 257.422,253.684 257.422 C 253.769 257.422,254.045 257.202,254.297 256.934 C 254.549 256.665,254.674 256.455,254.575 256.466 C 254.476 256.477,254.200 256.697,253.962 256.954 M178.418 275.000 C 178.633 275.092,178.940 275.168,179.102 275.168 C 179.286 275.168,179.250 275.106,179.004 275.000 C 178.789 274.908,178.481 274.832,178.320 274.832 C 178.136 274.832,178.172 274.894,178.418 275.000 M48.291 284.668 C 48.294 285.098,48.334 285.250,48.380 285.007 C 48.427 284.765,48.425 284.413,48.376 284.226 C 48.327 284.040,48.289 284.238,48.291 284.668 M351.612 284.668 C 351.614 285.098,351.654 285.250,351.701 285.007 C 351.747 284.765,351.746 284.413,351.697 284.226 C 351.648 284.040,351.610 284.238,351.612 284.668 M48.483 292.969 C 48.483 293.345,48.523 293.499,48.572 293.311 C 48.621 293.123,48.621 292.815,48.572 292.627 C 48.523 292.439,48.483 292.593,48.483 292.969 M320.107 321.202 C 319.849 321.477,319.770 321.651,319.931 321.589 C 320.185 321.492,320.817 320.703,320.641 320.703 C 320.605 320.703,320.365 320.928,320.107 321.202 M62.685 334.637 C 63.055 335.030,63.385 335.352,63.419 335.352 C 63.596 335.352,62.978 334.618,62.530 334.295 C 62.119 334.000,62.151 334.071,62.685 334.637 M337.028 334.676 C 336.607 335.048,336.305 335.394,336.357 335.446 C 336.409 335.497,336.793 335.190,337.211 334.762 C 338.141 333.809,338.056 333.769,337.028 334.676 M65.224 337.183 C 65.594 337.572,65.928 337.891,65.965 337.891 C 66.131 337.891,65.294 336.928,64.941 336.714 C 64.727 336.583,64.854 336.795,65.224 337.183 M334.295 337.395 C 333.802 337.874,333.398 338.333,333.398 338.413 C 333.398 338.494,333.838 338.127,334.375 337.598 C 334.912 337.069,335.352 336.611,335.352 336.580 C 335.352 336.417,335.109 336.604,334.295 337.395 M106.594 351.505 C 106.837 351.552,107.189 351.550,107.375 351.501 C 107.562 351.452,107.363 351.414,106.934 351.416 C 106.504 351.419,106.351 351.459,106.594 351.505 M113.379 351.563 C 113.313 351.670,113.444 351.758,113.672 351.758 C 113.899 351.758,114.031 351.670,113.965 351.563 C 113.898 351.455,113.767 351.367,113.672 351.367 C 113.577 351.367,113.445 351.455,113.379 351.563 M114.993 351.701 C 115.235 351.747,115.587 351.746,115.774 351.697 C 115.960 351.648,115.762 351.610,115.332 351.612 C 114.902 351.614,114.750 351.654,114.993 351.701 M283.545 351.704 C 283.894 351.747,284.465 351.747,284.814 351.704 C 285.164 351.660,284.878 351.625,284.180 351.625 C 283.481 351.625,283.196 351.660,283.545 351.704 " stroke="none" fill="#709494" fill-rule="evenodd"></path></g></svg>